<?xml version="1.0" encoding="utf-8"?>
<!-- Generator: Adobe Illustrator 17.1.0, SVG Export Plug-In . SVG Version: 6.00 Build 0)  -->
<!DOCTYPE svg PUBLIC "-//W3C//DTD SVG 1.1//EN" "http://www.w3.org/Graphics/SVG/1.1/DTD/svg11.dtd">
<svg version="1.1" id="Layer_1" xmlns="http://www.w3.org/2000/svg" xmlns:xlink="http://www.w3.org/1999/xlink" x="0px" y="0px"
	 viewBox="0 0 74 75" enable-background="new 0 0 74 75" xml:space="preserve">
<g id="body__x2B__top_bar_xA0_Clipping_Path">
	<g>
		<path fill="#ECECEC" d="M67,1H7C3.7,1,1,3.7,1,7v60c0,3.3,2.7,6,6,6h60c3.3,0,6-2.7,6-6V7C73,3.7,70.3,1,67,1z"/>
	</g>
</g>
<g id="x">
	<g>
		<circle fill-rule="evenodd" clip-rule="evenodd" fill="#E64545" cx="9" cy="9" r="4"/>
	</g>
</g>
<g id="_x2D_">
	<g>
		<circle fill-rule="evenodd" clip-rule="evenodd" fill="#FFD02C" cx="21" cy="9" r="4"/>
	</g>
</g>
<g id="_x2B_">
	<g>
		<circle fill-rule="evenodd" clip-rule="evenodd" fill="#AEE42D" cx="33" cy="9" r="4"/>
	</g>
</g>
<g id="screen_1_">
	<g>
		<rect x="6" y="22" fill-rule="evenodd" clip-rule="evenodd" fill="#FFFFFF" width="62" height="46"/>
	</g>
</g>
<g>
	<g>
		<polygon fill="#303F9F" points="27.5,45.5 24.3,51 27.5,56.5 30.6,51 		"/>
		<polygon fill="#3F51B5" points="46.5,34.5 43.4,40 46.5,45.5 49.7,40 		"/>
		<polygon fill="#7986CB" points="49.7,40 40.2,56.5 46.5,56.5 52.9,45.5 		"/>
		<polygon fill="#FF4081" points="40.2,34.5 27.5,56.5 33.8,56.5 46.5,34.5 		"/>
		<polygon fill="#536DFE" points="27.5,34.5 21.1,45.5 24.3,51 33.8,34.5 		"/>
		<polygon fill="#FFFFFF" fill-opacity="0.2" points="40.2,34.5 43.4,40 46.5,34.5 		"/>
		<polygon fill="#FFFFFF" fill-opacity="0.1" points="37,40 40.2,34.5 43.4,40 		"/>
		<polygon fill="#FFFFFF" fill-opacity="0" points="37,40 40.2,45.5 43.4,40 		"/>
		<polygon fill-opacity="0.1" points="33.8,45.5 37,40 40.2,45.5 		"/>
		<polygon fill-opacity="0.2" points="33.8,45.5 37,51 40.2,45.5 		"/>
		<polygon fill-opacity="0.3" points="30.6,51 33.8,45.5 37,51 		"/>
		<polygon fill-opacity="0.4" points="30.6,51 33.8,56.5 37,51 		"/>
		<polygon fill-opacity="0.5" points="27.5,56.5 30.6,51 33.8,56.5 		"/>
		<polygon fill="#FFFFFF" fill-opacity="0.2" points="27.5,34.5 30.6,40 33.8,34.5 		"/>
		<polygon fill="#FFFFFF" fill-opacity="0.1" points="24.3,40 27.5,34.5 30.6,40 		"/>
		<polygon fill="#FFFFFF" fill-opacity="0" points="24.3,40 27.5,45.5 30.6,40 		"/>
		<polygon fill-opacity="0.1" points="21.1,45.5 24.3,40 27.5,45.5 		"/>
		<polygon fill-opacity="0.2" points="21.1,45.5 24.3,51 27.5,45.5 		"/>
		<polygon fill="#FFFFFF" fill-opacity="0" points="30.6,51 27.5,45.5 24.3,51 		"/>
		<polygon fill-opacity="0.2" points="30.6,51 27.5,56.5 24.3,51 		"/>
		<polygon fill-opacity="0.2" points="49.7,40 46.5,34.5 43.4,40 		"/>
		<polygon fill="#FFFFFF" fill-opacity="0" points="49.7,40 46.5,45.5 43.4,40 		"/>
		<g>
			<polygon fill="#FFFFFF" fill-opacity="0.2" points="46.5,45.5 49.7,40 52.9,45.5 			"/>
			<polygon fill="#FFFFFF" fill-opacity="0.1" points="46.5,45.5 49.7,51 52.9,45.5 			"/>
			<polygon fill="#FFFFFF" fill-opacity="0" points="43.4,51 46.5,45.5 49.7,51 			"/>
			<polygon fill-opacity="0.1" points="43.4,51 46.5,56.5 49.7,51 			"/>
			<polygon fill-opacity="0.2" points="40.2,56.5 43.4,51 46.5,56.5 			"/>
		</g>
	</g>
	<rect x="21" y="29.5" fill="none" width="32" height="32"/>
</g>
</svg>
