<?xml version="1.0" encoding="utf-8"?>
<!-- Generator: Adobe Illustrator 17.1.0, SVG Export Plug-In . SVG Version: 6.00 Build 0)  -->
<!DOCTYPE svg PUBLIC "-//W3C//DTD SVG 1.1//EN" "http://www.w3.org/Graphics/SVG/1.1/DTD/svg11.dtd">
<svg version="1.1" id="Layer_1" opacity="0.05" xmlns="http://www.w3.org/2000/svg" xmlns:xlink="http://www.w3.org/1999/xlink"
	 x="0px" y="0px" viewBox="-2 22.4 1388 335.3" enable-background="new -2 22.4 1388 335.3" xml:space="preserve">
<g id="Layer_3">
	<g id="Layer_1_1_">
		<g id="Search">
			<g>
				<path fill="#FFFFFF" d="M664.2,261.2v79.7H556.7v-79.7H664.2 M666,259.4H554.9v83.2h111L666,259.4L666,259.4z"/>
			</g>
			<g>
				<path fill="#FFFFFF" d="M630.9,300v7.6h-52.6V300H630.9 M632.6,298.2h-56.1v11.1h56.1V298.2L632.6,298.2z"/>
			</g>
			<path fill="#FFFFFF" d="M646.1,309.3c-0.3,0-0.6-0.1-0.8-0.4l-2.3-2.4c-0.7,0.4-1.6,0.7-2.5,0.7c-2.5,0-4.6-2-4.6-4.6
				c0-2.5,2-4.6,4.6-4.6c2.5,0,4.6,2,4.6,4.6c0,0.8-0.2,1.6-0.6,2.3l2.4,2.5c0.4,0.4,0.4,1.1,0,1.5
				C646.6,309.2,646.3,309.3,646.1,309.3L646.1,309.3z M640.6,300.1c-1.5,0-2.7,1.2-2.7,2.7s1.2,2.7,2.7,2.7s2.7-1.2,2.7-2.7
				S642,300.1,640.6,300.1z"/>
			<rect x="577.2" y="292.7" fill="#FFFFFF" width="27.7" height="2.2"/>
		</g>
		<g id="Person_listing">
			<g>
				<path fill="#FFFFFF" d="M525.4,261.2v79.7H418v-79.7H525.4 M527.2,259.4h-111v83.2h111V259.4L527.2,259.4z"/>
			</g>
			<g>
				<path fill="#FFFFFF" d="M525.4,302.7v38.1H418v-38.1H525.4 M527.2,301h-111v41.6h111V301L527.2,301z"/>
			</g>
			<rect x="455" y="281" fill="#FFFFFF" width="55.5" height="2.2"/>
			<rect x="455" y="275.4" fill="#FFFFFF" width="27.7" height="2.2"/>
			<rect x="455" y="286.6" fill="#FFFFFF" width="44.4" height="2.2"/>
			<g>
				<path fill="#FFFFFF" d="M439.8,274.2c4.4,0,7.9,3.6,7.9,7.9s-3.6,7.9-7.9,7.9c-4.3,0-7.9-3.6-7.9-7.9S435.4,274.2,439.8,274.2
					 M439.8,272.5c-5.4,0-9.7,4.3-9.7,9.7s4.3,9.7,9.7,9.7c5.4,0,9.7-4.3,9.7-9.7S445.2,272.5,439.8,272.5L439.8,272.5z"/>
			</g>
			<path fill="#FFFFFF" d="M442.5,286.2c-1.1-0.4-0.9-0.7-1-1.1c0-0.1,0-0.3,0-0.4c0.3-0.3,0.5-0.5,0.7-1l0,0c0-0.1,0.1-0.4,0.1-0.5
				c0.3-0.1,0.4-0.3,0.4-0.5c0.1-0.1,0.2-0.4,0.2-0.6c0-0.4-0.2-0.5-0.4-0.5c0,0,0,0,0-0.1c0-0.1,0-0.1,0-0.2
				c0.1-0.4,0.1-0.6,0.1-0.8c0-0.3-0.1-0.7-0.2-1.1l0,0l-0.2-0.4v-0.2l-0.2-0.1l0,0c0,0-0.2-0.2,0-0.3c-0.1-0.1-0.4,0-0.4,0
				l-0.1-0.4c0,0.1-0.2,0-0.4,0c-0.5-0.1-0.2-0.4-0.7-0.5c0-0.2,0-0.4,0-0.4s-0.3,0.2-0.4,0.1c-0.1-0.2,0.1-0.4,0.1-0.4
				s-0.4,0-0.4,0.4c-0.1-0.1,0-0.3,0.1-0.4c-0.4,0.2-0.6,0.5-0.8,0.7c0,0-0.1-0.1-0.1-0.2c-0.2,0.1-0.3,0.6-0.4,0.6
				c-0.1,0-0.3-0.1-0.3-0.2c-0.2,0-0.6,0.9-0.6,0.9l-0.4,0.4c0,0,0.2,0,0.2,0.1s-0.3,0.6-0.3,0.6s0.2-0.1,0.2,0s0,0,0,0l-0.3,0.6
				l0.2-0.1c0,0.3,0,0.4,0,0.7c0,0.2,0,0.4,0,0.4c-0.2,0.1-0.3,0.3-0.3,0.5s0.1,0.5,0.2,0.6c0.1,0.3,0.2,0.5,0.4,0.5
				c0,0.1,0.1,0.4,0.1,0.5l0,0l0,0c0.2,0.4,0.4,0.7,0.7,1c0,0.1,0,0.3,0,0.4c0,0.4,0.1,0.6-1,1.1c-1.1,0.4-2.6,1-2.9,1.7
				c-0.1,0.1-0.1,0.3-0.1,0.4c1.4,1.3,3.3,2.1,5.5,2.1c2.2,0,4.1-0.9,5.6-2.3c0-0.1-0.1-0.2-0.1-0.3
				C445,287.1,443.4,286.6,442.5,286.2z"/>
			<rect x="502.2" y="275.4" fill="#FFFFFF" width="8.4" height="2.2"/>
			<rect x="455" y="320.7" fill="#FFFFFF" width="55.5" height="2.2"/>
			<rect x="455" y="315.1" fill="#FFFFFF" width="22.2" height="2.2"/>
			<rect x="502.2" y="315.1" fill="#FFFFFF" width="8.4" height="2.2"/>
			<rect x="455" y="326.2" fill="#FFFFFF" width="50" height="2.2"/>
			<g>
				<path fill="#FFFFFF" d="M439.8,313.9c4.4,0,7.9,3.6,7.9,7.9c0,4.3-3.6,7.9-7.9,7.9c-4.3,0-7.9-3.6-7.9-7.9
					C431.9,317.5,435.4,313.9,439.8,313.9 M439.8,312.1c-5.4,0-9.7,4.3-9.7,9.7c0,5.4,4.3,9.7,9.7,9.7c5.4,0,9.7-4.3,9.7-9.7
					C449.5,316.5,445.2,312.1,439.8,312.1L439.8,312.1z"/>
			</g>
			<path fill="#FFFFFF" d="M439.8,331.5c1.9,0,3.8-0.6,5.4-1.6c0-1.5-0.1-3.1-0.2-3.3c-0.3-0.7-1.8-1.1-2.7-1.6
				c-1-0.4-0.9-0.7-0.9-1.1c0,0,0,0,0-0.1c0.2-0.2,0.4-0.4,0.5-0.6c0.6,0.2,1.3,0.1,1.9-0.3c-1-1-0.4-2.2-1.1-4.3
				c-0.6-1.8-3-1.7-3.3-1.1c-1.3-0.4-2.2,0.2-2.6,2c-0.4,2.2,0.2,2.4-0.8,3.3c0.7,0.4,1.3,0.4,1.8,0.2c0.2,0.4,0.4,0.6,0.6,0.8
				c0,0,0,0,0,0.1c0,0.4,0.1,0.6-0.9,1.1c-1,0.4-2.5,0.9-2.7,1.6c-0.2,0.4-0.2,1.8-0.2,3.3C436,331,437.8,331.5,439.8,331.5z"/>
		</g>
		<g id="Profile">
			<g>
				<path fill="#FFFFFF" d="M386.7,261.2v79.7H279.2v-79.7H386.7 M388.4,259.4h-111v83.2h111V259.4L388.4,259.4z"/>
			</g>
			<g>
				<path fill="#FFFFFF" d="M386.7,261.2v79.7H318v-79.7H386.7 M388.4,259.4h-72.2v83.2h72.2V259.4L388.4,259.4z"/>
			</g>
			<g>
				<path fill="#FFFFFF" d="M309,269.5v21.5h-21.5v-21.5H309 M310.8,267.7h-25v25h25V267.7L310.8,267.7z"/>
			</g>
			<path fill="#FFFFFF" d="M306.8,290.8c-0.5-1.1-3-1.8-4.6-2.6c-1.7-0.7-1.4-1.1-1.5-1.7c0-0.2,0-0.4,0-0.5
				c0.4-0.4,0.9-0.9,1.1-1.5c0,0,0,0,0-0.1c0.1-0.2,0.1-0.6,0.2-0.8c0.4-0.1,0.6-0.4,0.7-0.9c0.1-0.2,0.3-0.5,0.2-1
				c-0.1-0.5-0.3-0.8-0.5-0.9v-0.1c0-0.1,0-0.2,0-0.3c0.1-0.5,0.1-1,0.1-1.2c0-0.4-0.1-1.1-0.4-1.8l0,0l-0.4-0.7l-0.1-0.3l-0.3-0.1
				c0,0,0,0-0.1,0c0-0.1-0.3-0.3,0-0.4c-0.1-0.2-0.6-0.1-0.6-0.1s-0.1-0.4-0.2-0.5c-0.1,0.1-0.4,0.1-0.5,0.1
				c-0.8-0.1-0.3-0.8-1.1-0.8c0-0.4,0-0.5,0-0.5s-0.4,0.4-0.5,0.2c-0.1-0.4,0.1-0.7,0.1-0.7s-0.6,0-0.7,0.6c-0.1-0.2,0-0.4,0.1-0.5
				c-0.7,0.3-1,0.8-1.2,1.1c0,0.1-0.2-0.2-0.2-0.3c-0.3,0.2-0.4,0.9-0.6,1c-0.2,0.1-0.4-0.2-0.4-0.3c-0.3,0-0.9,1.3-0.9,1.3
				l-0.6,0.6c0,0,0.4,0,0.4,0.1c0,0.1-0.4,1-0.4,1s0.3-0.2,0.3-0.1c0,0.1,0,0,0,0l-0.4,1.1l0.3-0.1c0,0.4-0.1,0.7-0.1,1.1
				s0,0.5,0,0.8c-0.2,0.1-0.4,0.4-0.4,0.9c0,0.4,0.2,0.8,0.2,1c0.1,0.4,0.4,0.8,0.7,0.9c0.1,0.2,0.1,0.6,0.2,0.8l0,0l0,0
				c0.3,0.7,0.6,1.1,1.1,1.6c0,0.2,0,0.4,0,0.5c-0.1,0.6,0.1,1-1.5,1.7c-1.7,0.7-4.1,1.5-4.6,2.6c-0.5,1.1-0.3,1.8-0.3,1.8h17.6
				C307.1,292.7,307.3,292,306.8,290.8z"/>
			<rect x="330.2" y="298.2" fill="#FFFFFF" width="44.4" height="2.2"/>
			<rect x="330.2" y="292.7" fill="#FFFFFF" width="44.4" height="2.2"/>
			<rect x="330.2" y="312.1" fill="#FFFFFF" width="33.3" height="2.2"/>
			<rect x="330.2" y="323.2" fill="#FFFFFF" width="38.8" height="2.2"/>
			<rect x="330.2" y="317.7" fill="#FFFFFF" width="44.4" height="2.2"/>
			<rect x="330.2" y="287.1" fill="#FFFFFF" width="44.4" height="2.2"/>
			<rect x="330.2" y="281.6" fill="#FFFFFF" width="44.4" height="2.2"/>
			<rect x="330.2" y="276.1" fill="#FFFFFF" width="22.2" height="2.2"/>
			<rect x="285.8" y="307.1" fill="#FFFFFF" width="2.2" height="2.2"/>
			<rect x="291.4" y="307.1" fill="#FFFFFF" width="19.4" height="2.2"/>
			<rect x="285.8" y="301.6" fill="#FFFFFF" width="2.2" height="2.2"/>
			<rect x="291.4" y="301.6" fill="#FFFFFF" width="19.4" height="2.2"/>
			<rect x="285.8" y="312.7" fill="#FFFFFF" width="2.2" height="2.2"/>
			<rect x="291.4" y="312.7" fill="#FFFFFF" width="19.4" height="2.2"/>
		</g>
		<g id="Showcase">
			<g>
				<path fill="#FFFFFF" d="M248,261.2v79.7H140.5v-79.7H248 M249.7,259.4h-111v83.2h111V259.4L249.7,259.4z"/>
			</g>
			<g>
				<path fill="#FFFFFF" d="M228.5,277.8v18.7h-18.7v-18.7H228.5 M230.3,276.1h-22.2v22.2h22.2V276.1L230.3,276.1z"/>
			</g>
			<g>
				<path fill="#FFFFFF" d="M200.8,277.8v18.7h-18.7v-18.7H200.8 M202.6,276.1h-22.2v22.2h22.2V276.1L202.6,276.1z"/>
			</g>
			<g>
				<path fill="#FFFFFF" d="M228.5,305.5v18.7h-18.7v-18.7H228.5 M230.3,303.8h-22.2V326h22.2V303.8L230.3,303.8z"/>
			</g>
			<g>
				<path fill="#FFFFFF" d="M200.8,305.5v18.7h-18.7v-18.7H200.8 M202.6,303.8h-22.2V326h22.2V303.8L202.6,303.8z"/>
			</g>
			<g>
				<path fill="#FFFFFF" d="M228.5,333.3v7.6h-18.7v-7.6H228.5 M230.3,331.5h-22.2v11.1h22.2V331.5L230.3,331.5z"/>
			</g>
			<g>
				<path fill="#FFFFFF" d="M200.8,333.3v7.6h-18.7v-7.6H200.8 M202.6,331.5h-22.2v11.1h22.2V331.5L202.6,331.5z"/>
			</g>
			<rect x="158.1" y="276.1" fill="#FFFFFF" width="16.6" height="2.2"/>
			<rect x="158.1" y="281.6" fill="#FFFFFF" width="16.6" height="2.2"/>
			<rect x="158.1" y="287.1" fill="#FFFFFF" width="16.6" height="2.2"/>
			<rect x="158.1" y="292.7" fill="#FFFFFF" width="16.6" height="2.2"/>
		</g>
		<g id="Blog_Article">
			<g>
				<path fill="#FFFFFF" d="M109.2,261.2v79.7H1.8v-79.7H109.2 M111,259.4H0v83.2h111V259.4L111,259.4z"/>
			</g>
			<rect x="25" y="281.6" fill="#FFFFFF" width="11.1" height="2.2"/>
			<rect x="25" y="287.1" fill="#FFFFFF" width="11.1" height="2.2"/>
			<rect x="25" y="292.7" fill="#FFFFFF" width="11.1" height="2.2"/>
			<rect x="25" y="326.6" fill="#FFFFFF" width="11.1" height="2.2"/>
			<rect x="25" y="270.5" fill="#FFFFFF" width="30.5" height="4.4"/>
			<g>
				<path fill="#FFFFFF" d="M84.2,283.4v15.9H43.4v-15.9H84.2 M86,281.6H41.6v19.4h44.4L86,281.6L86,281.6z"/>
			</g>
			<g>
				<path fill="#FFFFFF" d="M84.2,327.7v13.1H43.4v-13.1H84.2 M86,326H41.6v16.6h44.4L86,326L86,326z"/>
			</g>
			<rect x="41.6" y="303.8" fill="#FFFFFF" width="44.4" height="2.2"/>
			<rect x="41.6" y="309.3" fill="#FFFFFF" width="44.4" height="2.2"/>
			<rect x="41.6" y="314.9" fill="#FFFFFF" width="44.4" height="2.2"/>
			<rect x="41.6" y="320.4" fill="#FFFFFF" width="44.4" height="2.2"/>
		</g>
		<g id="Homepage">
			<g>
				<path fill="#FFFFFF" d="M664.2,150.1v79.7H556.7v-79.7H664.2 M666,148.4H554.9v83.2h111L666,148.4L666,148.4z"/>
			</g>
			<g>
				<path fill="#FFFFFF" d="M664.2,164v65.8H556.7V164H664.2 M666,162.3H554.9v69.3h111L666,162.3L666,162.3z"/>
			</g>
			<rect x="571.5" y="179.2" fill="#FFFFFF" width="77.7" height="2.2"/>
			<rect x="571.5" y="173.6" fill="#FFFFFF" width="38.8" height="2.2"/>
			<rect x="571.5" y="154.2" fill="#FFFFFF" width="25" height="4.4"/>
			<rect x="571.5" y="184.7" fill="#FFFFFF" width="77.7" height="2.2"/>
			<g>
				<path fill="#FFFFFF" d="M592,197.3V216h-18.7v-18.7L592,197.3 M593.8,195.5h-22.2v22.3h22.2V195.5L593.8,195.5z"/>
			</g>
			<g>
				<path fill="#FFFFFF" d="M619.8,197.3V216h-18.7v-18.7L619.8,197.3 M621.5,195.5h-22.2v22.3h22.2V195.5L621.5,195.5z"/>
			</g>
			<g>
				<path fill="#FFFFFF" d="M647.5,197.3V216h-18.7v-18.7L647.5,197.3 M649.2,195.5h-22.2v22.3h22.2V195.5L649.2,195.5z"/>
			</g>
		</g>
		<g id="Article">
			<g>
				<path fill="#FFFFFF" d="M525.4,150.1v79.7H418v-79.7H525.4 M527.2,148.4h-111v83.2h111V148.4L527.2,148.4z"/>
			</g>
			<g>
				<path fill="#FFFFFF" d="M453.3,166.8v18.7h-18.7v-18.7H453.3 M455,165h-22.2v22.2H455V165L455,165z"/>
			</g>
			<rect x="460.6" y="187.3" fill="#FFFFFF" width="50" height="2.2"/>
			<rect x="460.6" y="181.7" fill="#FFFFFF" width="50" height="2.2"/>
			<rect x="460.6" y="170.6" fill="#FFFFFF" width="50" height="2.2"/>
			<rect x="460.6" y="165" fill="#FFFFFF" width="22.2" height="2.2"/>
			<rect x="432.9" y="198.4" fill="#FFFFFF" width="77.7" height="2.2"/>
			<rect x="432.9" y="192.8" fill="#FFFFFF" width="77.7" height="2.2"/>
			<rect x="432.9" y="209.4" fill="#FFFFFF" width="55.5" height="2.2"/>
			<rect x="432.9" y="203.9" fill="#FFFFFF" width="77.7" height="2.2"/>
		</g>
		<g id="Preferences">
			<g>
				<path fill="#FFFFFF" d="M386.7,150.1v79.7H279.2v-79.7H386.7 M388.4,148.4h-111v83.2h111V148.4L388.4,148.4z"/>
			</g>
			<path fill="#FFFFFF" d="M364.9,159.5h-16.5c-3.8,0-6.9,3.1-6.9,6.9v0.2c0,3.8,3.1,6.9,6.9,6.9h16.5c3.8,0,6.9-3.1,6.9-6.9v-0.2
				C371.8,162.5,368.7,159.5,364.9,159.5z M350,169.7l-2.8-2.8l1.1-1.1l1.7,1.7l4.3-4.3l1.1,1.1L350,169.7z M364.7,171.7
				c-2.9,0-5.3-2.4-5.3-5.3c0-2.9,2.4-5.3,5.3-5.3c2.9,0,5.3,2.4,5.3,5.3C369.9,169.3,367.6,171.7,364.7,171.7z"/>
			<rect x="294.1" y="162.3" fill="#FFFFFF" width="25" height="2.2"/>
			<rect x="294.1" y="167.8" fill="#FFFFFF" width="38.8" height="2.2"/>
			<rect x="294.1" y="184.5" fill="#FFFFFF" width="38.8" height="2.2"/>
			<rect x="294.1" y="190" fill="#FFFFFF" width="33.3" height="2.2"/>
			<path fill="#FFFFFF" d="M364.9,181.7h-16.5c-3.8,0-6.9,3.1-6.9,6.9v0.2c0,3.8,3.1,6.9,6.9,6.9h16.5c3.8,0,6.9-3.1,6.9-6.9v-0.2
				C371.8,184.8,368.7,181.7,364.9,181.7z M350,191.8l-2.8-2.8l1.1-1.1l1.7,1.8l4.3-4.3l1.1,1.1L350,191.8z M364.7,193.9
				c-2.9,0-5.3-2.4-5.3-5.3s2.4-5.3,5.3-5.3c2.9,0,5.3,2.4,5.3,5.3S367.6,193.9,364.7,193.9z"/>
			<rect x="294.1" y="206.6" fill="#FFFFFF" width="33.3" height="2.2"/>
			<rect x="294.1" y="212.2" fill="#FFFFFF" width="38.8" height="2.2"/>
			<path fill="#FFFFFF" d="M364.9,203.9h-16.5c-3.8,0-6.9,3.1-6.9,6.9v0.2c0,3.8,3.1,6.9,6.9,6.9h16.5c3.8,0,6.9-3.1,6.9-6.9v-0.2
				C371.8,207,368.7,203.9,364.9,203.9z M348.6,216.1c-2.9,0-5.3-2.4-5.3-5.3c0-2.9,2.4-5.3,5.3-5.3c2.9,0,5.3,2.4,5.3,5.3
				C353.9,213.8,351.6,216.1,348.6,216.1z M365.3,213l-1.1,1.1l-2.2-2.2l-2.1,2.2l-1.1-1.1l2.2-2.1l-2.2-2.2l1.1-1.1l2.1,2.1
				l2.2-2.1l1.1,1.1l-2.1,2.2L365.3,213z"/>
		</g>
		<g id="Tabs">
			<g>
				<path fill="#FFFFFF" d="M248,150.1v79.7H140.5v-79.7H248 M249.7,148.4h-111v83.2h111V148.4L249.7,148.4z"/>
			</g>
			<polygon fill="none" points="183.1,171.2 183.1,160.1 152.6,160.1 152.6,171.2 138.8,171.2 138.8,231.6 249.7,231.6 249.7,171.2 
							"/>
			<polygon fill="#FFFFFF" points="138.8,173.4 138.8,171.2 152.6,171.2 152.6,160.1 183.1,160.1 183.1,171.2 249.7,171.2 
				249.7,173.4 180.9,173.4 180.9,162.3 154.8,162.3 154.8,173.4 			"/>
			<rect x="160.9" y="165.6" fill="#FFFFFF" width="13.9" height="2.2"/>
			<rect x="191.5" y="165.6" fill="#FFFFFF" width="13.9" height="2.2"/>
			<rect x="213.7" y="165.6" fill="#FFFFFF" width="13.9" height="2.2"/>
			<rect x="185.9" y="187.3" fill="#FFFFFF" width="47.2" height="2.2"/>
			<rect x="185.9" y="192.8" fill="#FFFFFF" width="36.1" height="2.2"/>
			<rect x="185.9" y="198.4" fill="#FFFFFF" width="47.2" height="2.2"/>
			<rect x="185.9" y="209.4" fill="#FFFFFF" width="47.2" height="2.2"/>
			<rect x="185.9" y="203.9" fill="#FFFFFF" width="36.1" height="2.2"/>
			<g>
				<path fill="#FFFFFF" d="M175.8,189v18.7h-18.7V189H175.8 M177.6,187.3h-22.2v22.2h22.2V187.3L177.6,187.3z"/>
			</g>
			<g>
				<path fill="#FFFFFF" d="M248,150.1v79.7H140.5v-79.7H248 M249.7,148.4h-111v83.2h111V148.4L249.7,148.4z"/>
			</g>
		</g>
		<g id="Modal_window">
			<g>
				<path fill="#FFFFFF" d="M109.2,150.1v79.7H1.8v-79.7H109.2 M111,148.4H0v83.2h111V148.4L111,148.4z"/>
			</g>
			<g>
				<path fill="#FFFFFF" d="M92.6,166.8v46.5H18.4v-46.5H92.6 M94.3,165H16.6v50h77.7L94.3,165L94.3,165z"/>
			</g>
			<rect x="74.9" y="203.9" fill="#FFFFFF" width="13.9" height="5.5"/>
			<rect x="58.3" y="203.9" fill="#FFFFFF" width="13.9" height="5.5"/>
			<g>
				<rect x="16.6" y="165" fill="#FFFFFF" width="77.7" height="13.9"/>
			</g>
			<polygon fill="none" points="86.6,171.3 88.1,169.8 88.8,170.6 87.3,172 88.8,173.5 88.1,174.2 86.6,172.8 85.1,174.2 
				84.4,173.5 85.8,172 84.4,170.6 85.1,169.8 			"/>
			<rect x="22.2" y="170.9" fill="none" width="27.7" height="2.2"/>
			<rect x="27.7" y="192.8" fill="#FFFFFF" width="55.5" height="2.2"/>
			<rect x="27.7" y="187.3" fill="#FFFFFF" width="27.7" height="2.2"/>
		</g>
		<g id="Video_player">
			<g>
				<path fill="#FFFFFF" d="M664.2,39.2v79.7H556.7V39.2H664.2 M666,37.4H554.9v83.2h111L666,37.4L666,37.4z"/>
			</g>
			<g>
				<path fill="#FFFFFF" d="M647.5,55.8v46.5h-74.2V55.8H647.5 M649.2,54h-77.7v50h77.7V54L649.2,54z"/>
			</g>
			<g>
				<path fill="#FFFFFF" d="M647.5,55.8v32.6h-74.2V55.8L647.5,55.8 M649.2,54h-77.7v36.1h77.7V54L649.2,54z"/>
			</g>
			<path fill="#FFFFFF" d="M577.6,92.9v5.5l4.7-2.7L577.6,92.9z"/>
			<g>
				<path fill="#FFFFFF" d="M631.3,95.6C631.4,95.6,631.4,95.7,631.3,95.6l0.1,0.2c0,0.1-0.1,0.1-0.1,0.1h-41.7
					c-0.1,0-0.1-0.1-0.1-0.1v-0.1c0-0.1,0.1-0.1,0.1-0.1H631.3 M631.3,92.9h-41.7c-1.5,0-2.7,1.2-2.7,2.7v0.1c0,1.5,1.2,2.7,2.7,2.7
					h41.7c1.5,0,2.7-1.2,2.7-2.7v-0.1C634,94.2,632.8,92.9,631.3,92.9L631.3,92.9z"/>
			</g>
			<path fill="#FFFFFF" d="M611.6,97.3h-22c-0.9,0-1.7-0.7-1.7-1.7l0,0c0-0.9,0.7-1.7,1.7-1.7h22c0.9,0,1.7,0.7,1.7,1.7l0,0
				C613.2,96.6,612.5,97.3,611.6,97.3z"/>
			<g>
				<g>
					<path fill="#FFFFFF" d="M642.9,93.4L642.9,93.4c-0.2,0-0.2,0-0.3,0.1c0,0.1-0.1,0.1,0,0.2c0,0.1,0,0.1,0.1,0.2
						c0.4,0.4,0.8,1.1,0.8,1.8c0,0.9-0.4,1.7-0.9,1.9c-0.1,0-0.1,0.1-0.1,0.1s0,0.1,0,0.2c0,0.1,0.1,0.1,0.2,0.1h0.1
						c0.7-0.4,1.1-1.3,1.1-2.4C643.8,94.7,643.4,93.8,642.9,93.4z M642.1,94.1L642.1,94.1c-0.2-0.1-0.2-0.1-0.3,0
						c0,0.1-0.1,0.1,0,0.2c0,0.1,0,0.1,0.1,0.2c0.3,0.3,0.4,0.7,0.4,1.2c0,0.5-0.3,1.1-0.6,1.2c-0.1,0.1-0.1,0.2-0.1,0.3
						c0,0.1,0.1,0.1,0.2,0.1h0.1c0.4-0.3,0.8-0.9,0.8-1.7C642.8,95,642.6,94.3,642.1,94.1z M638.1,94.5v2.6h1.3l1.8,1.4V93l-1.8,1.6
						L638.1,94.5z"/>
				</g>
			</g>
			<path fill="#FFFFFF" d="M607,67.9v8.4l7-4.1L607,67.9z"/>
		</g>
		<g id="Sign_in__x2F__Sign_up">
			<g>
				<path fill="#FFFFFF" d="M525.4,39.2v79.7H418V39.2H525.4 M527.2,37.4h-111v83.2h111V37.4L527.2,37.4z"/>
			</g>
			<g>
				<path fill="#FFFFFF" d="M497.7,75.3v4.8h-52v-4.8H497.7 M499.5,73.5h-55.5v8.4h55.5V73.5L499.5,73.5z"/>
			</g>
			<g>
				<path fill="#FFFFFF" d="M497.7,86.3v4.8h-52v-4.8H497.7 M499.5,84.6h-55.5v8.4h55.5V84.6L499.5,84.6z"/>
			</g>
			<rect x="480" y="95.7" fill="#FFFFFF" width="19.4" height="5.5"/>
			<rect x="455" y="56.9" fill="#FFFFFF" width="33.3" height="8.4"/>
		</g>
		<g id="Remove_item">
			<g>
				<path fill="#FFFFFF" d="M386.7,39.2v79.7H279.2V39.2H386.7 M388.4,37.4h-111v83.2h111V37.4L388.4,37.4z"/>
			</g>
			<g>
				<path fill="#FFFFFF" d="M314.6,55.8v18.7h-18.7V55.8H314.6 M316.4,54h-22.2v22.2h22.2V54L316.4,54z"/>
			</g>
			<g>
				<path fill="#FFFFFF" d="M342.3,55.8v18.7h-18.7V55.8H342.3 M344.1,54h-22.2v22.2h22.2V54L344.1,54z"/>
			</g>
			<g>
				<path fill="#FFFFFF" d="M370,55.8v18.7h-18.7V55.8H370 M371.8,54h-22.2v22.2h22.2V54L371.8,54z"/>
			</g>
			<g>
				<path fill="#FFFFFF" d="M314.6,83.6v18.7h-18.7V83.6H314.6 M316.4,81.9h-22.2V104h22.2V81.9L316.4,81.9z"/>
			</g>
			<g>
				<path fill="#FFFFFF" d="M342.3,83.6v18.7h-18.7V83.6H342.3 M344.1,81.9h-22.2V104h22.2V81.9L344.1,81.9z"/>
			</g>
			<path fill="#FFFFFF" d="M349.6,81.9V104h22.2V81.9H349.6z M366.2,94.5h-11.1v-3.2h11.1V94.5z"/>
		</g>
		<g id="Add_item">
			<g>
				<path fill="#FFFFFF" d="M248,39.2v79.7H140.5V39.2H248 M249.7,37.4h-111v83.2h111V37.4L249.7,37.4z"/>
			</g>
			<g>
				<path fill="#FFFFFF" d="M175.8,55.8v18.7h-18.7V55.8H175.8 M177.6,54h-22.2v22.2h22.2V54L177.6,54z"/>
			</g>
			<g>
				<path fill="#FFFFFF" d="M203.5,55.8v18.7h-18.7V55.8H203.5 M205.3,54h-22.2v22.2h22.2V54L205.3,54z"/>
			</g>
			<g>
				<path fill="#FFFFFF" d="M231.3,55.8v18.7h-18.7V55.8H231.3 M233.1,54h-22.2v22.2h22.2V54L233.1,54z"/>
			</g>
			<g>
				<path fill="#FFFFFF" d="M175.8,83.6v18.7h-18.7V83.6H175.8 M177.6,81.9h-22.2V104h22.2V81.9L177.6,81.9z"/>
			</g>
			<g>
				<path fill="#FFFFFF" d="M203.5,83.6v18.7h-18.7V83.6H203.5 M205.3,81.9h-22.2V104h22.2V81.9L205.3,81.9z"/>
			</g>
			<path fill="#FFFFFF" d="M210.8,81.9V104H233V81.9H210.8z M227.6,94.4h-4v4h-3.1v-4h-4v-3.1h4v-4h3.1v4h4V94.4z"/>
		</g>
		<g id="Sidebar">
			<g>
				<path fill="#FFFFFF" d="M109.2,39.2v79.7H1.8V39.2H109.2 M111,37.4H0v83.2h111V37.4L111,37.4z"/>
			</g>
			<rect x="8.4" y="45.8" fill="#FFFFFF" width="19.4" height="5.3"/>
			<rect x="8.4" y="90.1" fill="#FFFFFF" width="2.2" height="2.2"/>
			<rect x="13.9" y="90.1" fill="#FFFFFF" width="13.9" height="2.2"/>
			<rect x="8.4" y="56.9" fill="#FFFFFF" width="19.4" height="2.2"/>
			<rect x="8.4" y="62.4" fill="#FFFFFF" width="19.4" height="2.2"/>
			<rect x="8.4" y="95.7" fill="#FFFFFF" width="2.2" height="2.2"/>
			<rect x="13.9" y="95.7" fill="#FFFFFF" width="13.9" height="2.2"/>
			<rect x="8.4" y="101.2" fill="#FFFFFF" width="2.2" height="2.2"/>
			<rect x="13.9" y="101.2" fill="#FFFFFF" width="13.9" height="2.2"/>
			<rect x="8.4" y="106.8" fill="#FFFFFF" width="2.2" height="2.2"/>
			<rect x="13.9" y="106.5" fill="#FFFFFF" width="13.9" height="2.2"/>
			<g>
				<path fill="#FFFFFF" d="M109.2,39.2v79.7H35V39.2H109.2 M111,37.4H33.3v83.2H111L111,37.4L111,37.4z"/>
			</g>
		</g>
	</g>
	<g id="Layer_2">
		<g id="Multi_columns_1_">
			<g>
				<path fill="#FFFFFF" d="M1358.2,261.2v79.7h-107.4v-79.7H1358.2 M1360,259.4h-111v83.2h111V259.4L1360,259.4z"/>
			</g>
			<rect x="1265.7" y="298.2" fill="#FFFFFF" width="34.7" height="2.2"/>
			<rect x="1265.7" y="292.7" fill="#FFFFFF" width="34.7" height="2.2"/>
			<rect x="1265.7" y="287.1" fill="#FFFFFF" width="34.7" height="2.2"/>
			<rect x="1265.7" y="314.9" fill="#FFFFFF" width="34.7" height="2.2"/>
			<rect x="1265.7" y="309.3" fill="#FFFFFF" width="34.7" height="2.2"/>
			<rect x="1265.7" y="303.8" fill="#FFFFFF" width="34.7" height="2.2"/>
			<rect x="1265.7" y="326" fill="#FFFFFF" width="34.7" height="2.2"/>
			<rect x="1265.7" y="320.4" fill="#FFFFFF" width="34.7" height="2.2"/>
			<rect x="1265.7" y="281.6" fill="#FFFFFF" width="34.7" height="2.2"/>
			<rect x="1265.7" y="276.1" fill="#FFFFFF" width="23.6" height="2.2"/>
			<rect x="1308.6" y="298.2" fill="#FFFFFF" width="34.7" height="2.2"/>
			<rect x="1308.6" y="292.7" fill="#FFFFFF" width="34.7" height="2.2"/>
			<rect x="1308.6" y="287.1" fill="#FFFFFF" width="34.7" height="2.2"/>
			<rect x="1308.6" y="314.9" fill="#FFFFFF" width="34.7" height="2.2"/>
			<rect x="1308.6" y="309.3" fill="#FFFFFF" width="34.7" height="2.2"/>
			<rect x="1308.6" y="303.8" fill="#FFFFFF" width="34.7" height="2.2"/>
			<rect x="1308.6" y="326" fill="#FFFFFF" width="23.6" height="2.2"/>
			<rect x="1308.6" y="320.4" fill="#FFFFFF" width="34.7" height="2.2"/>
			<rect x="1308.6" y="281.6" fill="#FFFFFF" width="34.7" height="2.2"/>
		</g>
		<g id="Calendar_1_">
			<g>
				<path fill="#FFFFFF" d="M1219.5,261.2v79.7H1112v-79.7H1219.5 M1221.2,259.4h-111v83.2h111V259.4L1221.2,259.4z"/>
			</g>
			<rect x="1151.9" y="267.7" fill="#FFFFFF" width="27.7" height="2.2"/>
			<rect x="1124.2" y="287.1" fill="#FFFFFF" width="12.2" height="2.2"/>
			<rect x="1124.2" y="281.6" fill="#FFFFFF" width="12.2" height="2.2"/>
			<rect x="1124.2" y="292.7" fill="#FFFFFF" width="12.2" height="2.2"/>
			<rect x="1124.2" y="298.2" fill="#FFFFFF" width="12.2" height="2.2"/>
			<rect x="1124.2" y="303.8" fill="#FFFFFF" width="12.2" height="2.2"/>
			<rect x="1124.2" y="309.3" fill="#FFFFFF" width="12.2" height="2.2"/>
			<rect x="1124.2" y="314.9" fill="#FFFFFF" width="12.2" height="2.2"/>
			<rect x="1124.2" y="320.4" fill="#FFFFFF" width="12.2" height="2.2"/>
			<rect x="1195.2" y="287.1" fill="#FFFFFF" width="12.2" height="2.2"/>
			<rect x="1195.2" y="281.6" fill="#FFFFFF" width="12.2" height="2.2"/>
			<rect x="1195.2" y="292.7" fill="#FFFFFF" width="12.2" height="2.2"/>
			<rect x="1195.2" y="298.2" fill="#FFFFFF" width="12.2" height="2.2"/>
			<rect x="1195.2" y="303.8" fill="#FFFFFF" width="12.2" height="2.2"/>
			<rect x="1195.2" y="309.3" fill="#FFFFFF" width="12.2" height="2.2"/>
			<rect x="1195.2" y="314.9" fill="#FFFFFF" width="12.2" height="2.2"/>
			<rect x="1195.2" y="320.4" fill="#FFFFFF" width="12.2" height="2.2"/>
			<rect x="1124.2" y="326" fill="#FFFFFF" width="12.2" height="2.2"/>
			<rect x="1195.2" y="326" fill="#FFFFFF" width="12.2" height="2.2"/>
			<g>
				<path fill="#FFFFFF" d="M1189.3,279.1c0.5,0,1.1,0.4,1.1,1.1v48.6c0,0.5-0.4,1.1-1.1,1.1h-47.2c-0.5,0-1.1-0.4-1.1-1.1v-48.6
					c0-0.5,0.4-1.1,1.1-1.1H1189.3 M1189.3,277.4h-47.2c-1.5,0-2.8,1.2-2.8,2.8v48.6c0,1.5,1.2,2.8,2.8,2.8h47.2
					c1.5,0,2.8-1.2,2.8-2.8v-48.6C1192.1,278.7,1190.9,277.4,1189.3,277.4L1189.3,277.4z"/>
			</g>
			<g>
				<path fill="#FFFFFF" d="M1151.5,297.2v4.8h-4.8v-4.8H1151.5 M1153.3,295.4h-8.4v8.4h8.4V295.4L1153.3,295.4z"/>
			</g>
			<g>
				<path fill="#FFFFFF" d="M1162.6,297.2v4.8h-4.8v-4.8H1162.6 M1164.4,295.4h-8.4v8.4h8.4V295.4L1164.4,295.4z"/>
			</g>
			<g>
				<path fill="#FFFFFF" d="M1173.7,297.2v4.8h-4.8v-4.8H1173.7 M1175.5,295.4h-8.4v8.4h8.4V295.4L1175.5,295.4z"/>
			</g>
			<g>
				<path fill="#FFFFFF" d="M1184.8,297.2v4.8h-4.8v-4.8H1184.8 M1186.6,295.4h-8.4v8.4h8.4V295.4L1186.6,295.4z"/>
			</g>
			<g>
				<path fill="#FFFFFF" d="M1151.5,308.4v4.8h-4.8v-4.8H1151.5 M1153.3,306.6h-8.4v8.4h8.4V306.6L1153.3,306.6z"/>
			</g>
			<g>
				<path fill="#FFFFFF" d="M1162.6,308.4v4.8h-4.8v-4.8H1162.6 M1164.4,306.6h-8.4v8.4h8.4V306.6L1164.4,306.6z"/>
			</g>
			<g>
				<path fill="#FFFFFF" d="M1173.7,308.4v4.8h-4.8v-4.8H1173.7 M1175.5,306.6h-8.4v8.4h8.4V306.6L1175.5,306.6z"/>
			</g>
			<g>
				<path fill="#FFFFFF" d="M1184.8,308.4v4.8h-4.8v-4.8H1184.8 M1186.6,306.6h-8.4v8.4h8.4V306.6L1186.6,306.6z"/>
			</g>
			<g>
				<path fill="#FFFFFF" d="M1151.5,319.4v4.8h-4.8v-4.8H1151.5 M1153.3,317.7h-8.4v8.4h8.4V317.7L1153.3,317.7z"/>
			</g>
			<g>
				<path fill="#FFFFFF" d="M1162.6,319.4v4.8h-4.8v-4.8H1162.6 M1164.4,317.7h-8.4v8.4h8.4V317.7L1164.4,317.7z"/>
			</g>
			<g>
				<path fill="#FFFFFF" d="M1173.7,319.4v4.8h-4.8v-4.8H1173.7 M1175.5,317.7h-8.4v8.4h8.4V317.7L1175.5,317.7z"/>
			</g>
			<g>
				<path fill="#FFFFFF" d="M1184.8,319.4v4.8h-4.8v-4.8H1184.8 M1186.6,317.7h-8.4v8.4h8.4V317.7L1186.6,317.7z"/>
			</g>
			<line fill="none" stroke="#FFFFFF" stroke-width="2" stroke-miterlimit="10" x1="1190.7" y1="289.9" x2="1140.8" y2="289.9"/>
			<polygon fill="#FFFFFF" points="1147.7,284.3 1149.1,282.9 1148.4,282.2 1146.3,284.3 1148.4,286.4 1149.1,285.7 			"/>
			<polygon fill="#FFFFFF" points="1183.8,284.3 1182.4,282.9 1183.1,282.2 1185.2,284.3 1183.1,286.4 1182.4,285.7 			"/>
			<rect x="1160.2" y="283.1" fill="#FFFFFF" width="11.1" height="2.2"/>
			<polyline fill="#FFFFFF" points="1161.2,278 1165.7,273.4 1170.3,278 			"/>
		</g>
		<g id="About_person_1_">
			<g>
				<path fill="#FFFFFF" d="M1080.8,261.2v79.7H973.3v-79.7H1080.8 M1082.5,259.4H971.5v83.2h111L1082.5,259.4L1082.5,259.4z"/>
			</g>
			<rect x="1002" y="320.4" fill="#FFFFFF" width="50" height="2.2"/>
			<rect x="1002" y="314.9" fill="#FFFFFF" width="50" height="2.2"/>
			<rect x="1002" y="309.3" fill="#FFFFFF" width="50" height="2.2"/>
			<path fill="#FFFFFF" d="M1027,276.1c-6.9,0-12.5,5.6-12.5,12.5c0,6.9,5.6,12.5,12.5,12.5c6.9,0,12.5-5.6,12.5-12.5
				C1039.5,281.7,1033.9,276.1,1027,276.1z M1026.9,299.3c-2.6,0-5.1-1-7-2.7c0-0.2,0.1-0.3,0.1-0.4c0.3-0.7,1.8-1.2,2.9-1.7
				c0.4-0.1,0.6-0.3,0.9-0.4c1.3-0.5,1.4-1,1.5-1.6c0-0.1,0-0.1,0-0.2c0-0.2,0-0.4,0-0.5v-0.1l-0.1-0.1c-0.4-0.4-0.7-0.7-0.9-1.2
				c-0.1-0.1-0.1-0.3-0.1-0.4c0-0.1,0-0.2-0.1-0.3l-0.1-0.2h-0.2c-0.2,0-0.4-0.3-0.4-0.5c-0.1-0.1-0.2-0.4-0.2-0.6s0.1-0.4,0.3-0.5
				l0.2-0.1v-0.2c0-0.2,0-0.4,0-0.6c0-0.3,0-0.6,0-0.9v-0.4h-0.1l0.1-0.2l0.1-0.1l-0.1-0.2c0,0,0-0.1-0.1-0.1
				c0.3-0.4,0.3-0.5,0.3-0.6c0,0,0-0.1-0.1-0.2l0.3-0.3c0.2-0.4,0.4-0.7,0.5-0.9c0.1,0.1,0.3,0.1,0.4,0.1h0.1h0.1
				c0.2-0.1,0.2-0.2,0.3-0.4c0,0,0-0.1,0.1-0.2h0.2h0.1l0.1-0.1c0.1-0.1,0.1-0.2,0.2-0.3c0.1-0.2,0.2-0.3,0.4-0.4c0,0,0,0.1,0.1,0.1
				l0.4,0.5l0.1-0.4v0.1l0.1,0.1c0.1,0.1,0.2,0.1,0.3,0.1h0.1v0.3h0.3c0.2,0,0.2,0.1,0.3,0.2c0.1,0.2,0.2,0.4,0.7,0.5
				c0.1,0,0.2,0,0.3,0c0,0,0,0,0.1,0c0,0.1,0,0.1,0,0.2v0.3l0.3-0.1h0.1v0.1v0.1l0.2,0.2l0.1,0.1h0.1v0.1l0.3,0.6
				c0.2,0.5,0.3,1.1,0.3,1.4c0,0.3-0.1,0.7-0.1,1.1v0.4l0.2,0.2c0.2,0.1,0.3,0.3,0.3,0.5c0,0.3-0.1,0.5-0.2,0.6
				c-0.1,0.2-0.2,0.4-0.4,0.5h-0.2l-0.1,0.2c0,0.1,0,0.2-0.1,0.4c0,0.1,0,0.3-0.1,0.4c-0.2,0.5-0.4,0.9-0.9,1.2l-0.1,0.1v0.1
				c0,0.2,0,0.4,0,0.4s0,0.1,0,0.2c0,0.5,0.2,1,1.4,1.5c0.3,0.1,0.6,0.3,0.9,0.4c1.1,0.4,2.6,1.1,2.9,1.7c0,0.1,0,0.1,0.1,0.2
				C1032.2,298.2,1029.6,299.3,1026.9,299.3z"/>
		</g>
		<g id="Pricing_plans_1_">
			<g>
				<path fill="#FFFFFF" d="M942,261.2v79.7H834.6v-79.7H942 M943.8,259.4h-111v83.2h111V259.4L943.8,259.4z"/>
			</g>
			<polyline fill="none" points="905.5,281 905.5,314.9 871.1,314.9 871.1,281 905.5,281 			"/>
			<polygon fill="#FFFFFF" points="866.1,312.1 851.6,312.1 851.6,286.6 866.1,286.6 866.1,284.3 849.4,284.3 849.4,317.7 
				866.1,317.7 			"/>
			<polygon fill="#FFFFFF" points="910.5,284.3 910.5,286.6 924.9,286.6 924.9,312.1 910.5,312.1 910.5,317.7 927.1,317.7 
				927.1,284.3 			"/>
			<path fill="#FFFFFF" d="M868.9,278.8v44.4h38.8v-44.4H868.9z M899.3,307.7h-22.2v-2.2h22.2V307.7z M899.3,302.1h-22.2v-2.2h22.2
				V302.1z M899.3,296.6h-22.2v-2.2h22.2V296.6z M899.3,291h-22.2v-2.2h22.2V291z"/>
			<rect x="855" y="293" fill="#FFFFFF" width="11.1" height="2.2"/>
			<rect x="855" y="298.5" fill="#FFFFFF" width="11.1" height="2.2"/>
			<rect x="855" y="304" fill="#FFFFFF" width="11.1" height="2.2"/>
			<rect x="910.5" y="293" fill="#FFFFFF" width="11.1" height="2.2"/>
			<rect x="910.5" y="298.5" fill="#FFFFFF" width="11.1" height="2.2"/>
			<rect x="910.5" y="304" fill="#FFFFFF" width="11.1" height="2.2"/>
		</g>
		<g id="Star_rating_1_">
			<g>
				<path fill="#FFFFFF" d="M803.2,261.2v79.7H695.8v-79.7H803.2 M805,259.4H694v83.2h111V259.4L805,259.4z"/>
			</g>
			<g>
				<path fill="#FFFFFF" d="M803.2,308.4v32.6H695.8v-32.6H803.2 M805,306.6H694v36.1h111V306.6L805,306.6z"/>
			</g>
			<g>
				<path fill="#FFFFFF" d="M731.2,275v18.7h-18.7V275H731.2 M732.9,273.2h-22.2v22.2h22.2V273.2L732.9,273.2z"/>
			</g>
			<rect x="738.5" y="273.2" fill="#FFFFFF" width="50" height="2.2"/>
			<rect x="738.5" y="278.8" fill="#FFFFFF" width="38.8" height="2.2"/>
			<rect x="738.5" y="284.3" fill="#FFFFFF" width="50" height="2.2"/>
			<rect x="738.5" y="289.9" fill="#FFFFFF" width="38.8" height="2.2"/>
			<path fill="#FFFFFF" d="M751.6,322.3l4.2,0.8l-2.9,3.2l0.5,4.2l-3.9-1.8l-3.9,1.8l0.5-4.2l-2.9-3.2l4.2-0.8l2.1-3.8L751.6,322.3z
				"/>
			<path fill="#FFFFFF" d="M734.9,322.3l4.2,0.8l-2.9,3.2l0.5,4.2l-3.9-1.8l-3.9,1.8l0.5-4.2l-2.9-3.2l4.2-0.8l2.1-3.8L734.9,322.3z
				"/>
			<path fill="#FFFFFF" d="M718.1,322.3l4.2,0.8l-2.9,3.2l0.5,4.2l-3.9-1.8l-3.9,1.8l0.5-4.2l-2.9-3.2l4.2-0.8l2.1-3.8L718.1,322.3z
				"/>
			<g>
				<path fill="#FFFFFF" d="M766.3,322.3l0.5,1l0.4,0.7l0.8,0.2l1.1,0.2l-0.8,0.8l-0.5,0.6l0.1,0.8l0.2,1.1l-1-0.4l-0.7-0.4
					l-0.7,0.4l-1,0.4l0.2-1.1l0.1-0.8l-0.5-0.6l-0.8-0.8l1.1-0.2l0.8-0.2l0.4-0.7L766.3,322.3 M766.3,318.7l-2.1,3.8l-4.2,0.8
					l2.9,3.2l-0.5,4.2l3.9-1.8l3.9,1.8l-0.5-4.2l2.9-3.2l-4.2-0.8L766.3,318.7L766.3,318.7z"/>
			</g>
			<g>
				<path fill="#FFFFFF" d="M783.1,322.3l0.5,1l0.4,0.7l0.8,0.2l1.1,0.2l-0.8,0.8l-0.5,0.6l0.1,0.8l0.2,1.1l-1-0.4l-0.7-0.4
					l-0.7,0.4l-1,0.4l0.2-1.1l0.1-0.8l-0.5-0.6l-0.8-0.8l1.1-0.2l0.8-0.2l0.4-0.7L783.1,322.3 M783.1,318.7l-2.1,3.8l-4.2,0.8
					l2.9,3.2l-0.5,4.2l3.9-1.8l3.9,1.8l-0.5-4.2l2.9-3.2l-4.2-0.8L783.1,318.7L783.1,318.7z"/>
			</g>
		</g>
		<g id="Notifications_1_">
			<g>
				<path fill="#FFFFFF" d="M1358.2,150.1v79.7h-107.4v-79.7H1358.2 M1360,148.4h-111v83.2h111V148.4L1360,148.4z"/>
			</g>
			<g>
				<path fill="#FFFFFF" d="M1358.2,186v43.9h-107.4V186L1358.2,186 M1360,184.2h-111v47.4h111V184.2L1360,184.2z"/>
			</g>
			<g>
				<path fill="#FFFFFF" d="M1321.7,159.7c0.4,0,0.7,0.4,0.7,0.7v4.9v0.7l0.5,0.5l1.2,1.2l-1.2,1.2l-0.5,0.5v0.7v4.9
					c0,0.4-0.4,0.7-0.7,0.7h-14.8c-0.4,0-0.7-0.4-0.7-0.7v-14.8c0-0.4,0.4-0.7,0.7-0.7L1321.7,159.7 M1321.7,158h-14.8
					c-1.3,0-2.5,1.1-2.5,2.5v14.8c0,1.3,1.1,2.5,2.5,2.5h14.8c1.3,0,2.5-1.1,2.5-2.5v-4.9l2.5-2.5l-2.5-2.5v-4.9
					C1324.2,159,1323.1,158,1321.7,158L1321.7,158z"/>
			</g>
			<path fill="#FFFFFF" d="M1316.6,166.1c0,0.4-0.1,0.7-0.4,1s-0.6,0.4-1,0.6l0,0c0.5,0.1,0.9,0.2,1.1,0.4c0.3,0.3,0.4,0.6,0.4,1
				c0,0.6-0.3,1.1-0.7,1.4c-0.4,0.4-1.1,0.5-1.9,0.5c-0.7,0-1.3-0.1-1.8-0.4v-1.1c0.3,0.1,0.5,0.3,0.8,0.3c0.3,0.1,0.6,0.1,0.9,0.1
				c0.4,0,0.8-0.1,1-0.3c0.2-0.2,0.4-0.4,0.4-0.7c0-0.3-0.1-0.5-0.4-0.6s-0.6-0.2-1.1-0.2h-0.4V167h0.5c0.5,0,0.9-0.1,1.1-0.2
				c0.2-0.1,0.4-0.4,0.4-0.7c0-0.4-0.3-0.7-0.9-0.7c-0.2,0-0.4,0-0.6,0.1c-0.2,0.1-0.4,0.2-0.7,0.4l-0.6-0.9c0.6-0.4,1.2-0.6,2-0.6
				c0.6,0,1.1,0.2,1.6,0.4C1316.4,165.3,1316.6,165.6,1316.6,166.1z"/>
			<rect x="1265.7" y="201.7" fill="#FFFFFF" width="77.7" height="2.2"/>
			<rect x="1265.7" y="160.1" fill="#FFFFFF" width="22.2" height="2.2"/>
			<rect x="1265.7" y="165.6" fill="#FFFFFF" width="27.7" height="2.2"/>
			<rect x="1265.7" y="171.2" fill="#FFFFFF" width="27.7" height="2.2"/>
			<rect x="1265.7" y="212.8" fill="#FFFFFF" width="77.7" height="2.2"/>
			<rect x="1265.7" y="207.2" fill="#FFFFFF" width="66.6" height="2.2"/>
			<path fill="#FFFFFF" d="M1340.8,156.7c-6.1,0-11.1,5-11.1,11.1s5,11.1,11.1,11.1s11.1-5,11.1-11.1S1346.9,156.7,1340.8,156.7z
				 M1340.7,177.3c-2.3,0-4.5-0.9-6.2-2.4c0-0.1,0.1-0.3,0.1-0.4c0.3-0.6,1.5-1.1,2.6-1.5c0.3-0.1,0.5-0.2,0.8-0.4
				c1.1-0.5,1.3-0.9,1.3-1.4v-0.1c0-0.2,0-0.3,0-0.4v-0.1l-0.1-0.1c-0.4-0.4-0.6-0.6-0.8-1.1c0-0.1-0.1-0.3-0.1-0.4s0-0.2-0.1-0.3
				l-0.1-0.2h-0.2c-0.2,0-0.3-0.3-0.3-0.4c-0.1-0.1-0.2-0.3-0.2-0.5s0.1-0.4,0.2-0.4l0.2-0.1v-0.2c0-0.2,0-0.4,0-0.5
				c0-0.3,0-0.5,0-0.8v-0.4v-0.1l0.1-0.1l-0.1-0.2c0,0,0-0.1-0.1-0.1c0.2-0.4,0.2-0.4,0.2-0.5v-0.1l0.3-0.3c0.2-0.3,0.4-0.6,0.4-0.8
				c0.1,0.1,0.2,0.1,0.3,0.1h0.1h0.1c0.2-0.1,0.2-0.2,0.3-0.4v-0.1h0.1h0.1l0.1-0.1c0.1-0.1,0.1-0.2,0.2-0.2
				c0.1-0.1,0.2-0.2,0.3-0.4c0,0,0,0,0,0.1l0.4,0.5l0.1-0.4h0.1c0.1,0.1,0.2,0.1,0.3,0.1h0.1v0.3h0.3c0.2,0,0.2,0,0.2,0.2
				c0.1,0.2,0.2,0.4,0.6,0.5c0.1,0,0.2,0,0.3,0c0,0,0,0.1,0,0.2v0.3h0.3c0,0,0,0,0.1,0v0.1l0.2,0.2l0.1,0.1h0.1v0.1l0.3,0.5
				c0.2,0.5,0.3,1,0.3,1.2s-0.1,0.8-0.1,1v0.4v0.2l0.2,0.1c0.1,0.1,0.2,0.2,0.3,0.4c0,0.3-0.1,0.4-0.1,0.5c0,0.2-0.2,0.4-0.3,0.4
				h-0.2l-0.1,0.2c0,0.1,0,0.2-0.1,0.4c0,0.1,0,0.3-0.1,0.3c-0.2,0.4-0.4,0.8-0.8,1.1l-0.1,0.1v0.1c0,0.2,0,0.3,0,0.4
				c0,0.1,0,0.1,0,0.2c0,0.5,0.1,0.9,1.2,1.4c0.3,0.1,0.5,0.2,0.8,0.4c1.1,0.4,2.3,0.9,2.6,1.5c0,0,0,0.1,0.1,0.1
				C1345.4,176.4,1343.1,177.3,1340.7,177.3z"/>
		</g>
		<g id="Pintrest_layout_1_">
			<g>
				<path fill="#FFFFFF" d="M1219.5,150.1v79.7H1112v-79.7H1219.5 M1221.2,148.4h-111v83.2h111V148.4L1221.2,148.4z"/>
			</g>
			<g>
				<path fill="#FFFFFF" d="M1140.4,161.2v15.9h-15.9v-15.9H1140.4 M1142.1,159.5h-19.4v19.4h19.4V159.5L1142.1,159.5z"/>
			</g>
			<g>
				<path fill="#FFFFFF" d="M1140.4,183.5v10.4h-15.9v-10.4H1140.4 M1142.1,181.7h-19.4v13.9h19.4V181.7L1142.1,181.7z"/>
			</g>
			<g>
				<path fill="#FFFFFF" d="M1162.6,191.8v27h-15.9v-27H1162.6 M1164.4,190h-19.4v30.5h19.4V190L1164.4,190z"/>
			</g>
			<g>
				<path fill="#FFFFFF" d="M1184.8,177.9v13.1h-15.9v-13.1H1184.8 M1186.6,176.2h-19.4v16.6h19.4V176.2L1186.6,176.2z"/>
			</g>
			<g>
				<path fill="#FFFFFF" d="M1140.4,200.1v18.7h-15.9v-18.7H1140.4 M1142.1,198.4h-19.4v22.2h19.4V198.4L1142.1,198.4z"/>
			</g>
			<g>
				<path fill="#FFFFFF" d="M1184.8,197.3v21.5h-15.9v-21.5H1184.8 M1186.6,195.5h-19.4v25h19.4V195.5L1186.6,195.5z"/>
			</g>
			<g>
				<path fill="#FFFFFF" d="M1162.6,161.2v24.2h-15.9v-24.2H1162.6 M1164.4,159.5h-19.4v27.7h19.4V159.5L1164.4,159.5z"/>
			</g>
			<g>
				<path fill="#FFFFFF" d="M1207,161.2v57.6H1191v-57.6H1207 M1208.7,159.5h-19.4v61.1h19.4V159.5L1208.7,159.5z"/>
			</g>
			<g>
				<path fill="#FFFFFF" d="M1184.8,161.2v10.4h-15.9v-10.4H1184.8 M1186.6,159.5h-19.4v13.9h19.4V159.5L1186.6,159.5z"/>
			</g>
		</g>
		<g id="Simple_article_1_">
			<g>
				<path fill="#FFFFFF" d="M1080.8,150.1v79.7H973.3v-79.7H1080.8 M1082.5,148.4H971.5v83.2h111L1082.5,148.4L1082.5,148.4z"/>
			</g>
			<rect x="999.3" y="167.8" fill="#FFFFFF" width="55.5" height="2.2"/>
			<rect x="999.3" y="162.3" fill="#FFFFFF" width="22.2" height="2.2"/>
			<rect x="999.3" y="173.4" fill="#FFFFFF" width="55.5" height="2.2"/>
			<rect x="999.3" y="207.2" fill="#FFFFFF" width="55.5" height="2.2"/>
			<rect x="999.3" y="201.7" fill="#FFFFFF" width="55.5" height="2.2"/>
			<rect x="999.3" y="212.8" fill="#FFFFFF" width="55.5" height="2.2"/>
			<g>
				<path fill="#FFFFFF" d="M1011.4,183.5v10.4H1001v-10.4H1011.4 M1013.1,181.7h-13.9v13.9h13.9V181.7L1013.1,181.7z"/>
			</g>
			<g>
				<path fill="#FFFFFF" d="M1030.8,183.5v10.4h-10.4v-10.4H1030.8 M1032.6,181.7h-13.9v13.9h13.9V181.7L1032.6,181.7z"/>
			</g>
			<g>
				<path fill="#FFFFFF" d="M1050.2,183.5v10.4h-10.4v-10.4H1050.2 M1052,181.7h-13.9v13.9h13.9V181.7L1052,181.7z"/>
			</g>
		</g>
		<g id="Error_alert_1_">
			<g>
				<path fill="#FFFFFF" d="M942,150.1v79.7H834.6v-79.7H942 M943.8,148.4h-111v83.2h111V148.4L943.8,148.4z"/>
			</g>
			<rect x="874.4" y="187.3" fill="#FFFFFF" width="52.7" height="2.2"/>
			<rect x="874.4" y="192.8" fill="#FFFFFF" width="41.6" height="2.2"/>
			<path fill="#FFFFFF" d="M858.9,182.8c-4.6,0-8.4,3.7-8.4,8.4c0,4.6,3.7,8.4,8.4,8.4c4.6,0,8.4-3.7,8.4-8.4
				C867.3,186.5,863.6,182.8,858.9,182.8z M862.1,193.3l-1.1,1.1l-2.1-2.2l-2.2,2.2l-1.1-1.1l2.1-2.1l-2.1-2.2l1.1-1.1l2.2,2.1
				l2.1-2.1l1.1,1.1l-2.1,2.2L862.1,193.3z"/>
		</g>
		<g id="Success_alert_1_">
			<g>
				<path fill="#FFFFFF" d="M803.2,150.1v79.7H695.8v-79.7H803.2 M805,148.4H694v83.2h111V148.4L805,148.4z"/>
			</g>
			<path fill="#FFFFFF" d="M720.2,182.8c-4.6,0-8.4,3.7-8.4,8.4c0,4.6,3.7,8.4,8.4,8.4s8.4-3.7,8.4-8.4
				C728.5,186.5,724.8,182.8,720.2,182.8z M718.9,194.4l-2.8-2.9l1.1-1.1l1.7,1.8l4.3-4.3l1.1,1.1L718.9,194.4z"/>
			<rect x="735.7" y="187.3" fill="#FFFFFF" width="52.7" height="2.2"/>
			<rect x="735.7" y="192.8" fill="#FFFFFF" width="41.6" height="2.2"/>
		</g>
		<g id="Error_message_1_">
			<g>
				<path fill="#FFFFFF" d="M1358.2,39.2v79.7h-107.4V39.2H1358.2 M1360,37.4h-111v83.2h111V37.4L1360,37.4z"/>
			</g>
			<rect x="1285" y="95.7" fill="#FFFFFF" width="38.8" height="2.2"/>
			<rect x="1279.5" y="90.1" fill="#FFFFFF" width="50" height="2.2"/>
			<path fill="#FFFFFF" d="M1304.5,56.9c-6.9,0-12.5,5.6-12.5,12.5c0,6.9,5.6,12.5,12.5,12.5s12.5-5.6,12.5-12.5
				C1317,62.5,1311.4,56.9,1304.5,56.9z M1308.6,72.1l-1.4,1.4l-2.7-2.7l-2.7,2.7l-1.4-1.4l2.7-2.7l-2.7-2.8l1.4-1.4l2.7,2.8
				l2.7-2.8l1.4,1.4l-2.7,2.8L1308.6,72.1z"/>
		</g>
		<g id="Success_message_1_">
			<g>
				<path fill="#FFFFFF" d="M1219.5,39.2v79.7H1112V39.2H1219.5 M1221.2,37.4h-111v83.2h111V37.4L1221.2,37.4z"/>
			</g>
			<rect x="1146.3" y="95.7" fill="#FFFFFF" width="38.8" height="2.2"/>
			<rect x="1140.8" y="90.1" fill="#FFFFFF" width="50" height="2.2"/>
			<path fill="#FFFFFF" d="M1165.7,56.9c-6.9,0-12.5,5.6-12.5,12.5c0,6.9,5.6,12.5,12.5,12.5s12.5-5.6,12.5-12.5
				C1178.2,62.5,1172.6,56.9,1165.7,56.9z M1164.1,73.5l-3.7-3.6l1.4-1.4l2.3,2.2l5.5-5.5l1.4,1.4L1164.1,73.5z"/>
		</g>
		<g id="Select_option_1_">
			<g>
				<path fill="#FFFFFF" d="M1080.8,39.2v79.7H973.3V39.2H1080.8 M1082.5,37.4H971.5v83.2h111L1082.5,37.4L1082.5,37.4z"/>
			</g>
			<g>
				<path fill="#FFFFFF" d="M1008.6,58.9v18.7H990V58.9H1008.6 M1010.4,57.1h-22.2v22.2h22.2V57.1L1010.4,57.1z"/>
			</g>
			<g>
				<path fill="#FFFFFF" d="M1064.1,58.9v18.7h-18.7V58.9H1064.1 M1065.8,57.1h-22.2v22.2h22.2V57.1L1065.8,57.1z"/>
			</g>
			<g>
				<path fill="#FFFFFF" d="M1054.7,83.9c0.5,0,1.1,0.4,1.1,1.1s-0.4,1.1-1.1,1.1c-0.5,0-1.1-0.4-1.1-1.1S1054.2,83.9,1054.7,83.9
					 M1054.7,82.1c-1.5,0-2.8,1.2-2.8,2.8c0,1.5,1.2,2.8,2.8,2.8s2.8-1.2,2.8-2.8C1057.6,83.3,1056.3,82.1,1054.7,82.1L1054.7,82.1z
					"/>
			</g>
			<g>
				<circle fill="#FFFFFF" cx="1027" cy="84.8" r="2.8"/>
			</g>
			<g>
				<path fill="#FFFFFF" d="M999.3,83.9c0.5,0,1.1,0.4,1.1,1.1s-0.4,1.1-1.1,1.1c-0.5,0-1.1-0.4-1.1-1.1S998.7,83.9,999.3,83.9
					 M999.3,82.1c-1.5,0-2.8,1.2-2.8,2.8c0,1.5,1.2,2.8,2.8,2.8c1.6,0,2.8-1.2,2.8-2.8C1002,83.3,1000.8,82.1,999.3,82.1L999.3,82.1
					z"/>
			</g>
			<rect x="990.9" y="93.7" fill="#FFFFFF" width="16.6" height="2.2"/>
			<rect x="993.8" y="98.7" fill="#FFFFFF" width="11.1" height="2.2"/>
			<rect x="1018.7" y="93.7" fill="#FFFFFF" width="16.6" height="2.2"/>
			<rect x="1021.5" y="98.7" fill="#FFFFFF" width="11.1" height="2.2"/>
			<rect x="1046.5" y="93.7" fill="#FFFFFF" width="16.6" height="2.2"/>
			<rect x="1049.2" y="98.7" fill="#FFFFFF" width="11.1" height="2.2"/>
			<path fill="#FFFFFF" d="M1015.9,57.1v22.2h22.2V57.1H1015.9z M1025.2,72.9l-4.1-4l1.6-1.6l2.6,2.6l6.2-6.2l1.6,1.6L1025.2,72.9z"
				/>
		</g>
		<g id="Step_3_user_flow_1_">
			<g>
				<path fill="#FFFFFF" d="M942,39.2v79.7H834.6V39.2H942 M943.8,37.4h-111v83.2h111V37.4L943.8,37.4z"/>
			</g>
			<g>
				<path fill="#FFFFFF" d="M942,72.4v46.5H834.6V72.4H942 M943.8,70.7h-111v50h111V70.7L943.8,70.7z"/>
			</g>
			<g>
				<path fill="#FFFFFF" d="M916.7,46.5c3.3,0,6,2.6,6,6c0,3.3-2.6,6-6,6c-3.3,0-6-2.6-6-6C910.7,49.1,913.3,46.5,916.7,46.5
					 M916.7,44.7c-4.2,0-7.7,3.4-7.7,7.7s3.4,7.7,7.7,7.7s7.7-3.4,7.7-7.7S920.9,44.7,916.7,44.7L916.7,44.7z"/>
			</g>
			<path fill="#FFFFFF" d="M859.9,44.6c-4.3,0-7.7,3.5-7.7,7.7c0,4.3,3.5,7.7,7.7,7.7c4.3,0,7.7-3.5,7.7-7.7
				C867.7,48.1,864.2,44.6,859.9,44.6z M858.9,55l-2.3-2.3l0.9-0.9l1.4,1.4l3.3-3.4l0.9,0.9L858.9,55z"/>
			<path fill="#FFFFFF" d="M888.2,44.6c-4.3,0-7.7,3.5-7.7,7.7c0,4.3,3.5,7.7,7.7,7.7c4.3,0,7.7-3.5,7.7-7.7
				C896,48.1,892.5,44.6,888.2,44.6z M887.3,55l-2.3-2.3l0.9-0.9l1.4,1.4l3.4-3.4l0.8,0.9L887.3,55z"/>
			<path fill="#FFFFFF" d="M918.4,50.9c0,0.4-0.1,0.6-0.4,0.9c-0.3,0.3-0.5,0.4-0.9,0.5l0,0c0.4,0.1,0.8,0.2,1.1,0.4
				c0.3,0.3,0.4,0.5,0.4,0.9c0,0.5-0.2,1-0.6,1.2c-0.4,0.3-1,0.4-1.7,0.4c-0.6,0-1.1-0.1-1.7-0.3V54c0.2,0.1,0.4,0.2,0.7,0.3
				c0.3,0.1,0.5,0.1,0.8,0.1c0.4,0,0.7-0.1,0.9-0.2c0.2-0.2,0.3-0.4,0.3-0.6s-0.1-0.4-0.4-0.5c-0.2-0.1-0.5-0.2-1.1-0.2h-0.4v-0.9
				h0.4c0.4,0,0.8-0.1,1-0.2c0.2-0.1,0.3-0.4,0.3-0.6c0-0.4-0.3-0.6-0.8-0.6c-0.2,0-0.4,0-0.5,0.1s-0.4,0.2-0.6,0.4l-0.5-0.8
				c0.5-0.4,1.1-0.5,1.8-0.5c0.6,0,1.1,0.1,1.4,0.4C918.3,50.1,918.4,50.4,918.4,50.9z"/>
			<rect x="853.3" y="63.5" fill="#FFFFFF" width="13.2" height="2.2"/>
			<rect x="881.6" y="63.5" fill="#FFFFFF" width="13.2" height="2.2"/>
			<rect x="910" y="63.5" fill="#FFFFFF" width="13.2" height="2.2"/>
			<rect x="852.2" y="101.2" fill="#FFFFFF" width="72.2" height="2.2"/>
			<rect x="852.2" y="95.7" fill="#FFFFFF" width="72.2" height="2.2"/>
			<rect x="852.2" y="90.1" fill="#FFFFFF" width="72.2" height="2.2"/>
			<rect x="852.2" y="84.6" fill="#FFFFFF" width="38.8" height="2.2"/>
		</g>
		<g id="Step_user_flow_1_">
			<g>
				<path fill="#FFFFFF" d="M803.2,39.2v79.7H695.8V39.2H803.2 M805,37.4H694v83.2h111V37.4L805,37.4z"/>
			</g>
			<g>
				<path fill="#FFFFFF" d="M803.2,72.4v46.5H695.8V72.4H803.2 M805,70.7H694v50h111V70.7L805,70.7z"/>
			</g>
			<g>
				<path fill="#FFFFFF" d="M721.2,46.5c3.3,0,6,2.6,6,6c0,3.3-2.6,6-6,6c-3.3,0-6-2.6-6-6S717.9,46.5,721.2,46.5 M721.2,44.7
					c-4.2,0-7.7,3.4-7.7,7.7s3.4,7.7,7.7,7.7c4.2,0,7.7-3.4,7.7-7.7S725.5,44.7,721.2,44.7L721.2,44.7z"/>
			</g>
			<g>
				<path fill="#FFFFFF" d="M749.6,46.5c3.3,0,6,2.6,6,6c0,3.3-2.6,6-6,6c-3.3,0-6-2.6-6-6S746.2,46.5,749.6,46.5 M749.6,44.7
					c-4.2,0-7.7,3.4-7.7,7.7s3.4,7.7,7.7,7.7c4.2,0,7.7-3.4,7.7-7.7S753.8,44.7,749.6,44.7L749.6,44.7z"/>
			</g>
			<g>
				<path fill="#FFFFFF" d="M777.9,46.5c3.3,0,6,2.6,6,6c0,3.3-2.6,6-6,6c-3.3,0-6-2.6-6-6S774.6,46.5,777.9,46.5 M777.9,44.7
					c-4.2,0-7.7,3.4-7.7,7.7s3.4,7.7,7.7,7.7c4.2,0,7.7-3.4,7.7-7.7S782.1,44.7,777.9,44.7L777.9,44.7z"/>
			</g>
			<path fill="#FFFFFF" d="M779.7,50.9c0,0.4-0.1,0.6-0.4,0.9c-0.3,0.3-0.5,0.4-0.9,0.5l0,0c0.4,0.1,0.8,0.2,1.1,0.4
				c0.3,0.3,0.4,0.5,0.4,0.9c0,0.5-0.2,1-0.6,1.2c-0.4,0.3-1,0.4-1.7,0.4c-0.6,0-1.1-0.1-1.7-0.3V54c0.2,0.1,0.4,0.2,0.7,0.3
				c0.3,0.1,0.5,0.1,0.8,0.1c0.4,0,0.7-0.1,0.9-0.2c0.2-0.2,0.3-0.4,0.3-0.6s-0.1-0.4-0.4-0.5c-0.2-0.1-0.5-0.2-1.1-0.2h-0.4v-0.9
				h0.4c0.4,0,0.8-0.1,1-0.2c0.2-0.1,0.3-0.4,0.3-0.6c0-0.4-0.3-0.6-0.8-0.6c-0.2,0-0.4,0-0.5,0.1s-0.4,0.2-0.6,0.4l-0.5-0.8
				c0.5-0.4,1.1-0.5,1.8-0.5c0.6,0,1.1,0.1,1.4,0.4C779.5,50.1,779.7,50.4,779.7,50.9z"/>
			<rect x="714.5" y="63.5" fill="#FFFFFF" width="13.2" height="2.2"/>
			<rect x="743" y="63.5" fill="#FFFFFF" width="13.2" height="2.2"/>
			<rect x="771.3" y="63.5" fill="#FFFFFF" width="13.2" height="2.2"/>
			<rect x="713.5" y="101.2" fill="#FFFFFF" width="72.2" height="2.2"/>
			<rect x="713.5" y="95.7" fill="#FFFFFF" width="72.2" height="2.2"/>
			<rect x="713.5" y="90.1" fill="#FFFFFF" width="72.2" height="2.2"/>
			<rect x="713.5" y="84.6" fill="#FFFFFF" width="38.8" height="2.2"/>
			<path fill="#FFFFFF" d="M751.6,55.4h-4v-0.9l1.4-1.5c0.4-0.4,0.7-0.7,0.9-0.9c0.1-0.2,0.3-0.4,0.3-0.4c0-0.1,0.1-0.3,0.1-0.4
				c0-0.3-0.1-0.4-0.2-0.5c-0.1-0.1-0.3-0.2-0.5-0.2s-0.4,0.1-0.6,0.2c-0.2,0.1-0.4,0.3-0.6,0.4l-0.7-0.8c0.3-0.3,0.5-0.4,0.7-0.5
				c0.2-0.1,0.4-0.2,0.6-0.3c0.2-0.1,0.4-0.1,0.7-0.1c0.4,0,0.7,0.1,1,0.2c0.3,0.1,0.5,0.4,0.6,0.5c0.2,0.3,0.3,0.5,0.3,0.8
				s-0.1,0.5-0.2,0.7c-0.1,0.3-0.3,0.4-0.4,0.7s-0.5,0.6-1.1,1.1l-0.7,0.7v0.1h2.5L751.6,55.4L751.6,55.4z"/>
			<path fill="#FFFFFF" d="M721.9,55.4h-1.2V52v-0.5v-0.6c-0.2,0.2-0.4,0.4-0.4,0.4l-0.7,0.5l-0.6-0.7l1.8-1.5h1.1L721.9,55.4
				L721.9,55.4z"/>
		</g>
	</g>
</g>
</svg>
