<?xml version="1.0" encoding="utf-8"?>
<!-- Generator: Adobe Illustrator 17.0.2, SVG Export Plug-In . SVG Version: 6.00 Build 0)  -->
<!DOCTYPE svg PUBLIC "-//W3C//DTD SVG 1.1//EN" "http://www.w3.org/Graphics/SVG/1.1/DTD/svg11.dtd">
<svg version="1.1" id="Layer_1" xmlns="http://www.w3.org/2000/svg" xmlns:xlink="http://www.w3.org/1999/xlink" x="0px" y="0px"
	 width="31.984px" height="32px" viewBox="0 0 31.984 32" enable-background="new 0 0 31.984 32" xml:space="preserve">
<g>
	<path fill="#FFFFFF" d="M31.984,16c0,8.844-7.156,16-16,16C7.156,32,0,24.843,0,16C0,7.171,7.156,0,15.984,0
		C24.828,0,31.984,7.171,31.984,16z M20,29c5.5-1.812,9.484-6.938,9.484-13c0-7.453-6.047-13.5-13.5-13.5
		C8.547,2.5,2.5,8.546,2.5,16c0,6.062,4,11.203,9.516,13v-2.547c-3.938,0.891-4.766-1.844-4.766-1.844
		C6.625,23,5.719,22.578,5.719,22.578c-1.266-0.859,0.094-0.844,0.094-0.844c1.391,0.094,2.125,1.422,2.125,1.422
		c1.312,2.25,3.484,1.438,4.156,1.109c0.203-0.984,0.969-1.188,1.219-1.266c-3.547-0.375-7.344-1.656-7.344-7.797
		c0-1.719,0.609-3.125,1.609-4.219c-0.156-0.406-0.703-2,0.156-4.172c0,0,1.328-0.421,4.328,1.609
		C13.312,8.078,14.656,7.906,16,7.89c1.328,0.016,2.672,0.187,3.938,0.531c3-2.031,4.312-1.609,4.312-1.609
		c0.859,2.172,0.328,3.766,0.156,4.172c1.016,1.094,1.625,2.5,1.625,4.219c0,6.141-3.797,7.406-7.344,7.781
		C19.328,23.421,20,24.25,20,25.828V29z"/>
</g>
</svg>
