<?xml version="1.0" encoding="UTF-8" standalone="no"?>
<svg width="275px" height="135px" viewBox="0 0 275 135" version="1.1" xmlns="http://www.w3.org/2000/svg" xmlns:xlink="http://www.w3.org/1999/xlink" xmlns:sketch="http://www.bohemiancoding.com/sketch/ns">
    <!-- Generator: Sketch 3.0.3 (7892) - http://www.bohemiancoding.com/sketch -->
    <title>Slice 1</title>
    <desc>Created with Sketch.</desc>
    <defs></defs>
    <g id="Page-1" stroke="none" stroke-width="1" fill="none" fill-rule="evenodd" sketch:type="MSPage">
        <path d="M74.2675801,132.593529 C70.9476846,130.989207 68.1811465,128.830482 65.9678828,126.11729 C63.7546191,123.404098 62.0946963,120.26628 60.9880645,116.703741 C59.8814326,113.141202 59.328125,109.401772 59.328125,105.485339 C59.328125,102.842926 59.8225701,99.6933112 60.8114752,96.0364004 C61.8003802,92.3794896 62.8245879,89.1355046 63.884129,86.3043478 C64.9436702,83.4731911 66.2739629,80.7718362 67.8750473,78.2002022 C69.4761317,75.6285682 71.3479596,73.3636768 73.4905872,71.4054601 C75.6332148,69.4472433 78.0348053,67.8901305 80.6954308,66.7340748 C83.3560562,65.5780192 86.3109544,65 89.5602138,65 C92.1972939,65 94.6459744,65.4246671 96.9063288,66.2740142 C99.1666832,67.1233612 101.132691,68.3147884 102.804412,69.8483316 C104.476132,71.3818749 105.78288,73.2338954 106.724694,75.4044489 C107.666508,77.5750024 108.137409,80.0050422 108.137409,82.6946411 C108.137409,85.6201697 107.183836,88.8995437 105.276662,92.5328615 C103.369488,96.1661793 101.144485,99.280405 98.6015862,101.875632 C96.0586875,104.470859 93.0331543,106.782936 89.5248959,108.811931 C86.0166376,110.840927 82.2141192,112.421632 78.1172269,113.554095 C78.8235877,114.828116 79.5181653,115.889783 80.2009807,116.73913 C80.8837961,117.588477 81.5783737,118.249071 82.2847345,118.72093 C82.9910952,119.19279 83.7327629,119.523086 84.5097597,119.71183 C85.2867565,119.900574 86.1226042,119.994944 87.0173278,119.994944 C89.8427708,119.994944 92.821214,119.428722 95.9527466,118.296259 C99.0842792,117.163796 102.133357,115.748239 105.100073,114.049545 C108.066788,112.350851 110.868643,110.49883 113.505723,108.493428 C116.142804,106.488025 118.379579,104.588819 120.216117,102.795753 L129.328125,112.280081 C125.184142,116.574002 120.781226,120.372414 116.119245,123.67543 C114.094344,125.091008 111.916431,126.482973 109.585441,127.851365 C107.25445,129.219757 104.80577,130.434777 102.239326,131.496461 C99.6728818,132.558145 97.0122962,133.407479 94.2574893,134.044489 C91.5026824,134.6815 88.7125993,135 85.8871563,135 C81.4606289,135 77.5874756,134.197851 74.2675801,132.593529 Z M76.328125,102 C78.0554064,102 79.9385946,101.567586 81.9777462,100.702744 C84.0168978,99.8379022 85.9120809,98.7276491 87.6633523,97.3719512 C89.4146237,96.0162534 91.1298843,94.1931009 92.8091856,91.902439 C94.4884869,89.6117772 95.328125,87.7185034 95.328125,86.222561 C95.328125,84.1188919 94.9322956,82.3892344 94.140625,81.0335366 C93.3489544,79.6778388 92.3773732,79 91.2258523,79 C89.1627106,79 87.3994707,79.37398 85.9360795,80.1219512 C84.4726884,80.8699224 83.2492158,81.8399331 82.265625,83.0320122 C81.2820342,84.2240913 80.4903755,85.5797688 79.890625,87.0990854 C79.2908745,88.6184019 78.5951744,90.4999888 77.8035038,92.7439024 C77.0118332,94.9878161 76.5680245,96.8343423 76.4720644,98.2835366 C76.3761043,99.7327308 76.328125,100.97154 76.328125,102 Z" id="Path" fill="#FFFFFF" sketch:type="MSShapeGroup"></path>
        <path d="M130.424899,135 C127.870048,135 125.492652,133.88673 123.292641,131.660156 C121.09263,129.433583 119.17652,126.445331 117.544254,122.695312 C115.911988,118.945294 114.634581,114.597681 113.711996,109.652344 C112.789411,104.707007 112.328125,99.5156522 112.328125,94.078125 C112.328125,89.9062291 112.635649,85.3711182 113.250706,80.4726562 C113.865762,75.5741943 114.764678,70.5234635 115.94748,65.3203125 C117.130281,60.1171615 118.537794,54.8906512 120.17006,49.640625 C121.802327,44.3905988 123.64747,39.3515866 125.705544,34.5234375 C127.763619,29.6952884 129.999081,25.1836147 132.411996,20.9882812 C134.824911,16.7929478 137.356069,13.1367343 140.005544,10.0195312 C142.65502,6.90232816 145.422734,4.45313391 148.30877,2.671875 C151.194806,0.890616094 154.12811,0 157.10877,0 C159.143189,0 160.822742,0.45702668 162.14748,1.37109375 C163.472218,2.28516082 164.513067,3.49218 165.27006,4.9921875 C166.027054,6.492195 166.559306,8.19139676 166.866835,10.0898438 C167.174363,11.9882907 167.328125,13.9218652 167.328125,15.890625 C167.328125,20.296897 166.819528,24.7851334 165.802319,29.3554688 C164.785109,33.9258041 163.41308,38.5195082 161.68619,43.1367188 C159.959299,47.7539293 157.960394,52.3827893 155.689415,57.0234375 C153.418436,61.6640857 151.052868,66.2695084 148.592641,70.8398438 C146.132414,75.4101791 143.660395,79.9101341 141.176512,84.3398438 C138.692629,88.7695534 136.362544,93.0937289 134.18619,97.3125 C133.949629,97.7812523 133.701245,98.3906213 133.441028,99.140625 C133.180812,99.8906287 132.932427,100.699214 132.695867,101.566406 C132.459307,102.433598 132.22275,103.35937 131.98619,104.34375 C131.749629,105.32813 131.560384,106.289058 131.418448,107.226562 L131.418448,108.210938 C131.418448,109.429694 131.548554,110.613276 131.80877,111.761719 C132.068987,112.910162 132.388338,113.941402 132.766835,114.855469 C133.145331,115.769536 133.547478,116.496091 133.973286,117.035156 C134.399095,117.574221 134.801241,117.84375 135.179738,117.84375 C136.078667,117.84375 137.107689,117.656252 138.266835,117.28125 C139.42598,116.906248 140.656075,116.402347 141.957157,115.769531 C143.258239,115.136716 144.594785,114.41016 145.966835,113.589844 C147.338885,112.769527 148.663602,111.937504 149.941028,111.09375 C152.921688,109.12499 156.044238,106.851575 159.30877,104.273438 L165.128125,119.039062 C160.917351,122.039077 156.753952,124.710926 152.637802,127.054688 C150.839944,128.039067 148.982973,129.011714 147.066835,129.972656 C145.150696,130.933599 143.222758,131.789059 141.282964,132.539062 C139.343169,133.289066 137.450715,133.886717 135.605544,134.332031 C133.760374,134.777346 132.033509,135 130.424899,135 Z M130.328125,79 C132.450322,75.2345491 134.702175,70.9984803 137.083752,66.2916667 C139.465329,61.584853 141.717182,56.7369077 143.839379,51.7476852 C145.961576,46.7584627 147.800786,41.7810819 149.357064,36.8153935 C150.913342,31.8497051 151.903686,27.2253301 152.328125,22.9421296 C152.328125,21.5771537 152.292756,20.4122348 152.222016,19.447338 C152.151276,18.4824412 151.927269,18 151.54999,18 C150.182352,18 148.708626,18.8825143 147.128768,20.6475694 C145.54891,22.4126246 143.969076,24.8012967 142.389218,27.8136574 C140.80936,30.8260181 139.300265,34.3325417 137.861887,38.3333333 C136.423509,42.3341249 135.13842,46.5937274 134.006582,51.1122685 C132.874743,55.6308096 131.978718,60.2787184 131.318479,65.0561343 C130.65824,69.8335501 130.328125,74.4814589 130.328125,79 Z" id="Path" fill="#FFFFFF" sketch:type="MSShapeGroup"></path>
        <path d="M176.887156,135 C172.460629,135 168.587476,134.197851 165.26758,132.593529 C161.947685,130.989207 159.181146,128.830482 156.967883,126.11729 C154.754619,123.404098 153.094696,120.26628 151.988064,116.703741 C150.881433,113.141202 150.328125,109.401772 150.328125,105.485339 C150.328125,102.842926 150.82257,99.6933112 151.811475,96.0364004 C152.80038,92.3794896 153.824588,89.1355046 154.884129,86.3043478 C155.94367,83.4731911 157.273963,80.7718362 158.875047,78.2002022 C160.476132,75.6285682 162.34796,73.3636768 164.490587,71.4054601 C166.633215,69.4472433 169.034805,67.8901305 171.695431,66.7340748 C174.356056,65.5780192 177.310954,65 180.560214,65 C183.197294,65 185.645974,65.4246671 187.906329,66.2740142 C190.166683,67.1233612 192.132691,68.3147884 193.804412,69.8483316 C195.476132,71.3818749 196.78288,73.2338954 197.724694,75.4044489 C198.666508,77.5750024 199.137409,80.0050422 199.137409,82.6946411 C199.137409,85.6201697 198.183836,88.8995437 196.276662,92.5328615 C194.369488,96.1661793 192.144485,99.280405 189.601586,101.875632 C187.058687,104.470859 184.033154,106.782936 180.524896,108.811931 C177.016638,110.840927 173.214119,112.421632 169.117227,113.554095 C169.823588,114.828116 170.518165,115.889783 171.200981,116.73913 C171.883796,117.588477 172.578374,118.249071 173.284734,118.72093 C173.991095,119.19279 174.732763,119.523086 175.50976,119.71183 C176.286757,119.900574 177.122604,119.994944 178.017328,119.994944 C180.842771,119.994944 183.821214,119.428722 186.952747,118.296259 C190.084279,117.163796 193.133357,115.748239 196.100073,114.049545 C199.066788,112.350851 201.868643,110.49883 204.505723,108.493428 C207.142804,106.488025 209.379579,104.588819 211.216117,102.795753 L220.328125,112.280081 C216.184142,116.574002 211.781226,120.372414 207.119245,123.67543 C205.094344,125.091008 202.916431,126.482973 200.585441,127.851365 C198.25445,129.219757 195.80577,130.434777 193.239326,131.496461 C190.672882,132.558145 188.012296,133.407479 185.257489,134.044489 C182.502682,134.6815 179.712599,135 176.887156,135 Z M167.328125,102 C168.964497,102 170.74857,101.567586 172.680398,100.702744 C174.612226,99.8379022 176.407662,98.7276491 178.066761,97.3719512 C179.725861,96.0162534 181.350844,94.1931009 182.941761,91.902439 C184.532678,89.6117772 185.328125,87.7185034 185.328125,86.222561 C185.328125,84.1188919 184.953129,82.3892344 184.203125,81.0335366 C183.453121,79.6778388 182.532676,79 181.441761,79 C179.487206,79 177.816768,79.37398 176.430398,80.1219512 C175.044027,80.8699224 173.884948,81.8399331 172.953125,83.0320122 C172.021302,84.2240913 171.27131,85.5797688 170.703125,87.0990854 C170.13494,88.6184019 169.475856,90.4999888 168.725852,92.7439024 C167.975849,94.9878161 167.555398,96.8343423 167.464489,98.2835366 C167.373579,99.7327308 167.328125,100.97154 167.328125,102 Z" id="Path" fill="#FFFFFF" sketch:type="MSShapeGroup"></path>
        <path d="M15.3320312,109.332031 C12.285141,108.300776 9.77149428,107.339848 7.79101562,106.449219 C5.81053697,105.558589 4.24609949,104.644536 3.09765625,103.707031 C1.94921301,102.769527 1.15234598,101.767583 0.70703125,100.701172 C0.261716523,99.6347603 0.0390625,98.3984445 0.0390625,96.9921875 C0.0390625,95.6328057 0.337887637,94.5488322 0.935546875,93.7402344 C1.53320611,92.9316366 2.32421383,92.2519559 3.30859375,91.7011719 C4.29297367,91.1503879 5.41210311,90.6582053 6.66601562,90.2246094 C7.91992814,89.7910135 9.20311844,89.2695343 10.515625,88.6601562 C10.5625002,88.6367186 11.0136676,88.4375019 11.8691406,88.0625 C12.7246137,87.6874981 13.8203058,87.2128935 15.15625,86.6386719 C16.4921942,86.0644503 17.9863199,85.4316441 19.6386719,84.7402344 C21.2910239,84.0488247 22.9199138,83.3750033 24.5253906,82.71875 C26.1308674,82.0624967 27.6367117,81.4648464 29.0429688,80.9257812 C30.4492258,80.3867161 31.5859332,79.9765639 32.453125,79.6953125 C32.9687526,79.5312492 33.4843724,79.4492188 34,79.4492188 C34.6328157,79.4492188 35.1660135,79.583983 35.5996094,79.8535156 C36.0332053,80.1230482 36.3964829,80.4687479 36.6894531,80.890625 C36.9824233,81.3125021 37.2050774,81.7636695 37.3574219,82.2441406 C37.5097664,82.7246118 37.6269527,83.1816385 37.7089844,83.6152344 C37.791016,84.0488303 37.8378906,84.4121079 37.8496094,84.7050781 C37.8613282,84.9980483 37.8671875,85.1562499 37.8671875,85.1796875 C37.8671875,86.0937546 37.6210962,86.7851539 37.1289062,87.2539062 C36.6367163,87.7226586 35.9687542,88.0859362 35.125,88.34375 L6.9296875,97.4492188 L29.9570312,105.886719 C30.3320331,106.027344 30.7832005,106.273436 31.3105469,106.625 C31.8378933,106.976564 32.3359352,107.404294 32.8046875,107.908203 C33.2734398,108.412112 33.6777327,108.992184 34.0175781,109.648438 C34.3574236,110.304691 34.5273438,111.019527 34.5273438,111.792969 C34.5273438,112.613285 34.2050813,113.281247 33.5605469,113.796875 C32.9160124,114.312503 32.0312556,114.570312 30.90625,114.570312 C29.8984325,114.570312 28.779303,114.382814 27.5488281,114.007812 C26.3183532,113.632811 25.0293036,113.175784 23.6816406,112.636719 C22.3339776,112.097654 20.951179,111.5293 19.5332031,110.931641 C18.1152273,110.333981 16.7148507,109.800784 15.3320312,109.332031 L15.3320312,109.332031 Z" id="&lt;" fill="#FFFFFF" sketch:type="MSShapeGroup"></path>
        <path d="M257.925781,110.035156 C256.542962,110.503909 255.142585,111.037106 253.724609,111.634766 C252.306634,112.232425 250.923835,112.800779 249.576172,113.339844 C248.228509,113.878909 246.939459,114.335936 245.708984,114.710938 C244.478509,115.085939 243.35938,115.273438 242.351562,115.273438 C241.226557,115.273438 240.3418,115.015628 239.697266,114.5 C239.052731,113.984372 238.730469,113.31641 238.730469,112.496094 C238.730469,111.722652 238.841796,111.007816 239.064453,110.351562 C239.28711,109.695309 239.562498,109.115237 239.890625,108.611328 C240.218752,108.107419 240.564451,107.679689 240.927734,107.328125 C241.291017,106.976561 241.61328,106.730469 241.894531,106.589844 L265.976562,97.4492188 L240.59375,89.75 C239.749996,89.4921862 239.082034,89.1289086 238.589844,88.6601562 C238.097654,88.1914039 237.851562,87.5000046 237.851562,86.5859375 C237.851562,86.5624999 237.857422,86.4042983 237.869141,86.1113281 C237.880859,85.8183579 237.927734,85.4550803 238.009766,85.0214844 C238.091797,84.5878885 238.208984,84.1308618 238.361328,83.6503906 C238.513673,83.1699195 238.736327,82.7187521 239.029297,82.296875 C239.322267,81.8749979 239.685545,81.5292982 240.119141,81.2597656 C240.552737,80.990233 241.085934,80.8554688 241.71875,80.8554688 C242.234378,80.8554688 242.749997,80.9374992 243.265625,81.1015625 C244.039066,81.3359387 245.041009,81.675779 246.271484,82.1210938 C247.501959,82.5664085 248.820305,83.0703097 250.226562,83.6328125 C251.63282,84.1953153 253.044915,84.7695283 254.462891,85.3554688 C255.880866,85.9414092 257.169916,86.474607 258.330078,86.9550781 C259.49024,87.4355493 260.445309,87.8339828 261.195312,88.1503906 C261.945316,88.4667985 262.34375,88.6367186 262.390625,88.6601562 C263.703132,89.2695343 264.986322,89.7910135 266.240234,90.2246094 C267.494147,90.6582053 268.613276,91.1503879 269.597656,91.7011719 C270.582036,92.2519559 271.373044,92.9316366 271.970703,93.7402344 C272.568362,94.5488322 272.867188,95.6328057 272.867188,96.9921875 C272.867188,98.4687574 272.650393,99.7753849 272.216797,100.912109 C271.783201,102.048834 271.003912,103.10937 269.878906,104.09375 C268.753901,105.07813 267.224619,106.044917 265.291016,106.994141 C263.357412,107.943364 260.902359,108.957026 257.925781,110.035156 L257.925781,110.035156 Z" id=">" fill="#FFFFFF" sketch:type="MSShapeGroup"></path>
    </g>
</svg>