<?xml version="1.0" encoding="utf-8"?>
<!-- Generator: Adobe Illustrator 17.1.0, SVG Export Plug-In . SVG Version: 6.00 Build 0)  -->
<!DOCTYPE svg PUBLIC "-//W3C//DTD SVG 1.1//EN" "http://www.w3.org/Graphics/SVG/1.1/DTD/svg11.dtd">
<svg version="1.1" id="Layer_1" xmlns="http://www.w3.org/2000/svg" xmlns:xlink="http://www.w3.org/1999/xlink" x="0px" y="0px"
	 viewBox="0 0 47.3 40.7" enable-background="new 0 0 47.3 40.7" xml:space="preserve">
<g>
	<path fill="#FFFFFF" d="M40.3,16.8l1,3.3l-7.4,2.1c0,0,0,4.4-3.6,6.2c-3.6,1.8-6.3,0.3-6.3,0.3l-0.4-1.3l5.3-1.4l1.2-4.5L26.6,18
		l-4.9,1.5l-0.4-1.2c0,0,2.3-5.1,9.1-2.2c0,0,2.1,1.3,2.6,2.5C33,18.7,40.3,16.8,40.3,16.8z M41.3,16.6l1.2-0.3l0.9,3.4L42.2,20
		L41.3,16.6z M41.7,16.4l0.8-0.2l0.9,3.4L42.2,20l-0.3-1.1l0.5-0.2L41.7,16.4z M39.5,17l0.8-0.2l1,3.3l-7.4,2.1c0,0-0.1,3.9-2.6,5.6
		c-2.6,1.7-5.4,1.7-7.3,0.8l-0.2-0.6c0,0,5,1.2,7.5-2.6c1.5-2.5,1.5-4.3,1.5-4.3l7.4-2C40.1,19.2,39.5,17,39.5,17z M21.3,18.3
		l4.3-1.3l1,0.9l-4.9,1.5L21.3,18.3z M6.1,20.7L6.9,24l7.4-2c0,0,2.3,3.8,6.2,3.5c4-0.3,5.6-3,5.6-3l-0.3-1.3l-5.3,1.5l-3.3-3.3
		l1.2-4.6l5-1.2l-0.2-1.2c0,0-4.6-3.2-8.9,2.8c0,0-1.1,2.2-1,3.5C13.3,18.5,6.1,20.7,6.1,20.7z M5.1,21l-1.2,0.3l0.9,3.4l1.2-0.3
		L5.1,21z M4.7,21.1l-0.7,0.2l0.9,3.4l1.2-0.3l-0.3-1.1l-0.5,0.1L4.7,21.1z M6.9,20.5l-0.8,0.2L6.9,24l7.4-2c0,0,2,3.3,5.1,3.5
		c3.1,0.2,5.5-1.3,6.7-3L26,21.9c0,0-3.7,3.6-7.8,1.6c-2.6-1.4-3.4-2.9-3.4-2.9l-7.4,2.1C7.4,22.7,6.9,20.5,6.9,20.5z M23.2,12.3
		l-4.4,1.1l-0.4,1.3l5-1.2L23.2,12.3z"/>
</g>
</svg>
